G75*
%MOIN*%
%OFA0B0*%
%FSLAX25Y25*%
%IPPOS*%
%LPD*%
%AMOC8*
5,1,8,0,0,1.08239X$1,22.5*
%
%ADD10C,0.00300*%
%ADD11C,0.00500*%
%ADD12C,0.00400*%
%ADD13R,0.05512X0.02559*%
D10*
X0013190Y0124430D02*
X0012573Y0125048D01*
X0012573Y0126282D01*
X0013190Y0126899D01*
X0013190Y0128113D02*
X0012573Y0128731D01*
X0012573Y0129965D01*
X0013190Y0130582D01*
X0013807Y0130582D01*
X0014424Y0129965D01*
X0015042Y0130582D01*
X0015659Y0130582D01*
X0016276Y0129965D01*
X0016276Y0128731D01*
X0015659Y0128113D01*
X0015659Y0126899D02*
X0016276Y0126282D01*
X0016276Y0125048D01*
X0015659Y0124430D01*
X0013190Y0124430D01*
X0014424Y0129348D02*
X0014424Y0129965D01*
X0026667Y0130201D02*
X0028519Y0128350D01*
X0028519Y0130818D01*
X0030370Y0130201D02*
X0026667Y0130201D01*
X0027285Y0127135D02*
X0026667Y0126518D01*
X0026667Y0125284D01*
X0027285Y0124667D01*
X0029753Y0124667D01*
X0030370Y0125284D01*
X0030370Y0126518D01*
X0029753Y0127135D01*
X0030244Y0160021D02*
X0030244Y0161472D01*
X0030727Y0161956D01*
X0031695Y0161956D01*
X0032179Y0161472D01*
X0032179Y0160021D01*
X0033146Y0160021D02*
X0030244Y0160021D01*
X0032179Y0160988D02*
X0033146Y0161956D01*
X0033146Y0162967D02*
X0030244Y0162967D01*
X0030244Y0164902D01*
X0031695Y0163935D02*
X0031695Y0162967D01*
X0033630Y0165914D02*
X0033630Y0167849D01*
X0033146Y0168860D02*
X0033146Y0169828D01*
X0033146Y0169344D02*
X0030244Y0169344D01*
X0030244Y0168860D02*
X0030244Y0169828D01*
X0030244Y0170825D02*
X0033146Y0172760D01*
X0030244Y0172760D01*
X0030244Y0170825D02*
X0033146Y0170825D01*
X0040086Y0170795D02*
X0040086Y0168860D01*
X0040086Y0169828D02*
X0042989Y0169828D01*
X0042989Y0167849D02*
X0041054Y0167849D01*
X0040086Y0166881D01*
X0041054Y0165914D01*
X0042989Y0165914D01*
X0042505Y0164902D02*
X0042989Y0164419D01*
X0042989Y0162967D01*
X0040086Y0162967D01*
X0040086Y0164419D01*
X0040570Y0164902D01*
X0041054Y0164902D01*
X0041537Y0164419D01*
X0041537Y0162967D01*
X0042021Y0161956D02*
X0040086Y0161956D01*
X0040086Y0160021D02*
X0042021Y0160021D01*
X0042989Y0160988D01*
X0042021Y0161956D01*
X0041537Y0164419D02*
X0042021Y0164902D01*
X0042505Y0164902D01*
X0041537Y0165914D02*
X0041537Y0167849D01*
X0050322Y0166881D02*
X0051290Y0167849D01*
X0053225Y0167849D01*
X0051774Y0167849D02*
X0051774Y0165914D01*
X0051290Y0165914D02*
X0050322Y0166881D01*
X0051290Y0165914D02*
X0053225Y0165914D01*
X0053225Y0164902D02*
X0050322Y0162967D01*
X0050322Y0161956D02*
X0050322Y0160021D01*
X0050322Y0160988D02*
X0053225Y0160988D01*
X0053225Y0162967D02*
X0050322Y0164902D01*
X0059771Y0164902D02*
X0062674Y0162967D01*
X0062674Y0161956D02*
X0061706Y0160988D01*
X0061706Y0161472D02*
X0061706Y0160021D01*
X0062674Y0160021D02*
X0059771Y0160021D01*
X0059771Y0161472D01*
X0060255Y0161956D01*
X0061222Y0161956D01*
X0061706Y0161472D01*
X0059771Y0162967D02*
X0062674Y0164902D01*
X0062674Y0165914D02*
X0060739Y0165914D01*
X0059771Y0166881D01*
X0060739Y0167849D01*
X0062674Y0167849D01*
X0061222Y0167849D02*
X0061222Y0165914D01*
X0070204Y0165914D02*
X0070204Y0167365D01*
X0070688Y0167849D01*
X0071172Y0167849D01*
X0071655Y0167365D01*
X0071655Y0165914D01*
X0070204Y0165914D02*
X0073107Y0165914D01*
X0073107Y0167365D01*
X0072623Y0167849D01*
X0072139Y0167849D01*
X0071655Y0167365D01*
X0070204Y0164902D02*
X0073107Y0162967D01*
X0073107Y0164902D02*
X0070204Y0162967D01*
X0070204Y0161956D02*
X0070204Y0160021D01*
X0070204Y0160988D02*
X0073107Y0160988D01*
X0080440Y0161472D02*
X0080440Y0160021D01*
X0083343Y0160021D01*
X0082375Y0160021D02*
X0082375Y0161472D01*
X0081892Y0161956D01*
X0080924Y0161956D01*
X0080440Y0161472D01*
X0080440Y0162967D02*
X0083343Y0164902D01*
X0083343Y0165914D02*
X0083343Y0167365D01*
X0082859Y0167849D01*
X0082375Y0167849D01*
X0081892Y0167365D01*
X0081892Y0165914D01*
X0083343Y0165914D02*
X0080440Y0165914D01*
X0080440Y0167365D01*
X0080924Y0167849D01*
X0081408Y0167849D01*
X0081892Y0167365D01*
X0080440Y0164902D02*
X0083343Y0162967D01*
X0083343Y0161956D02*
X0082375Y0160988D01*
X0090283Y0160505D02*
X0090767Y0160021D01*
X0092702Y0160021D01*
X0093185Y0160505D01*
X0093185Y0161472D01*
X0092702Y0161956D01*
X0091734Y0161956D01*
X0091734Y0160988D01*
X0090767Y0161956D02*
X0090283Y0161472D01*
X0090283Y0160505D01*
X0090283Y0162967D02*
X0093185Y0164902D01*
X0090283Y0164902D01*
X0090283Y0165914D02*
X0090283Y0167365D01*
X0090767Y0167849D01*
X0092702Y0167849D01*
X0093185Y0167365D01*
X0093185Y0165914D01*
X0090283Y0165914D01*
X0090283Y0162967D02*
X0093185Y0162967D01*
X0108997Y0143589D02*
X0111466Y0141120D01*
X0112083Y0141737D01*
X0112083Y0142972D01*
X0111466Y0143589D01*
X0108997Y0143589D01*
X0108380Y0142972D01*
X0108380Y0141737D01*
X0108997Y0141120D01*
X0111466Y0141120D01*
X0111466Y0139896D02*
X0112083Y0139896D01*
X0112083Y0139278D01*
X0111466Y0139278D01*
X0111466Y0139896D01*
X0112083Y0138064D02*
X0112083Y0135595D01*
X0112083Y0136830D02*
X0108380Y0136830D01*
X0109614Y0135595D01*
X0109614Y0134381D02*
X0112083Y0133146D01*
X0109614Y0131912D01*
X0109614Y0127015D02*
X0109614Y0125163D01*
X0110231Y0124546D01*
X0111466Y0124546D01*
X0112083Y0125163D01*
X0112083Y0127015D01*
X0108380Y0127015D01*
X0109614Y0123328D02*
X0109614Y0122711D01*
X0110849Y0121477D01*
X0110849Y0120262D02*
X0110849Y0118411D01*
X0111466Y0117793D01*
X0112083Y0118411D01*
X0112083Y0120262D01*
X0110231Y0120262D01*
X0109614Y0119645D01*
X0109614Y0118411D01*
X0110231Y0116579D02*
X0109614Y0115962D01*
X0109614Y0114727D01*
X0110231Y0114110D01*
X0111466Y0114110D01*
X0112083Y0114727D01*
X0112083Y0115962D01*
X0111466Y0116579D01*
X0110231Y0116579D01*
X0109614Y0112896D02*
X0108997Y0112896D01*
X0108380Y0112279D01*
X0108380Y0110427D01*
X0112083Y0110427D01*
X0112083Y0112279D01*
X0111466Y0112896D01*
X0110849Y0112896D01*
X0110231Y0112279D01*
X0110231Y0110427D01*
X0110231Y0112279D02*
X0109614Y0112896D01*
X0108997Y0105530D02*
X0108380Y0104912D01*
X0108380Y0103678D01*
X0108997Y0103061D01*
X0109614Y0103061D01*
X0110231Y0103678D01*
X0110231Y0104912D01*
X0110849Y0105530D01*
X0111466Y0105530D01*
X0112083Y0104912D01*
X0112083Y0103678D01*
X0111466Y0103061D01*
X0110231Y0101846D02*
X0110849Y0101229D01*
X0110849Y0099378D01*
X0112083Y0099378D02*
X0108380Y0099378D01*
X0108380Y0101229D01*
X0108997Y0101846D01*
X0110231Y0101846D01*
X0110231Y0098163D02*
X0110231Y0096929D01*
X0110231Y0098163D02*
X0111466Y0098163D01*
X0112083Y0097546D01*
X0112083Y0096312D01*
X0111466Y0095695D01*
X0108997Y0095695D01*
X0108380Y0096312D01*
X0108380Y0097546D01*
X0108997Y0098163D01*
X0109614Y0090797D02*
X0109614Y0088945D01*
X0110231Y0088328D01*
X0110849Y0088945D01*
X0110849Y0090180D01*
X0111466Y0090797D01*
X0112083Y0090180D01*
X0112083Y0088328D01*
X0112083Y0087107D02*
X0111466Y0086490D01*
X0108997Y0086490D01*
X0109614Y0085873D02*
X0109614Y0087107D01*
X0109614Y0084658D02*
X0111466Y0084658D01*
X0112083Y0084041D01*
X0111466Y0083424D01*
X0112083Y0082807D01*
X0111466Y0082190D01*
X0109614Y0082190D01*
X0110231Y0080975D02*
X0110849Y0080975D01*
X0110849Y0078506D01*
X0111466Y0078506D02*
X0110231Y0078506D01*
X0109614Y0079124D01*
X0109614Y0080358D01*
X0110231Y0080975D01*
X0112083Y0079124D02*
X0111466Y0078506D01*
X0112083Y0079124D02*
X0112083Y0080358D01*
X0112083Y0077292D02*
X0108380Y0077292D01*
X0108380Y0074823D02*
X0112083Y0077292D01*
X0112083Y0074823D02*
X0108380Y0074823D01*
X0109614Y0072992D02*
X0109614Y0071757D01*
X0110231Y0071140D01*
X0111466Y0071140D01*
X0112083Y0071757D01*
X0112083Y0072992D01*
X0111466Y0073609D01*
X0110231Y0073609D01*
X0109614Y0072992D01*
X0109614Y0069923D02*
X0109614Y0069305D01*
X0110849Y0068071D01*
X0112083Y0068071D02*
X0109614Y0068071D01*
X0109614Y0066850D02*
X0109614Y0065616D01*
X0108997Y0066233D02*
X0111466Y0066233D01*
X0112083Y0066850D01*
X0111466Y0064401D02*
X0110849Y0063784D01*
X0110849Y0062550D01*
X0110231Y0061932D01*
X0109614Y0062550D01*
X0109614Y0064401D01*
X0111466Y0064401D02*
X0112083Y0063784D01*
X0112083Y0061932D01*
X0112083Y0060718D02*
X0109614Y0060718D01*
X0108380Y0059484D01*
X0109614Y0058249D01*
X0112083Y0058249D01*
X0110231Y0058249D02*
X0110231Y0060718D01*
X0109614Y0121477D02*
X0112083Y0121477D01*
X0095685Y0125835D02*
X0095685Y0127069D01*
X0095068Y0127686D01*
X0095685Y0128901D02*
X0095685Y0131370D01*
X0095685Y0130135D02*
X0091982Y0130135D01*
X0093217Y0128901D01*
X0092599Y0127686D02*
X0091982Y0127069D01*
X0091982Y0125835D01*
X0092599Y0125218D01*
X0095068Y0125218D01*
X0095685Y0125835D01*
X0081552Y0125441D02*
X0081552Y0126676D01*
X0080934Y0127293D01*
X0081552Y0128507D02*
X0079083Y0130976D01*
X0078466Y0130976D01*
X0077848Y0130359D01*
X0077848Y0129124D01*
X0078466Y0128507D01*
X0078466Y0127293D02*
X0077848Y0126676D01*
X0077848Y0125441D01*
X0078466Y0124824D01*
X0080934Y0124824D01*
X0081552Y0125441D01*
X0081552Y0128507D02*
X0081552Y0130976D01*
X0066237Y0129965D02*
X0066237Y0128731D01*
X0065619Y0128113D01*
X0065619Y0126899D02*
X0066237Y0126282D01*
X0066237Y0125048D01*
X0065619Y0124430D01*
X0063151Y0124430D01*
X0062533Y0125048D01*
X0062533Y0126282D01*
X0063151Y0126899D01*
X0062533Y0128113D02*
X0064385Y0128113D01*
X0063768Y0129348D01*
X0063768Y0129965D01*
X0064385Y0130582D01*
X0065619Y0130582D01*
X0066237Y0129965D01*
X0062533Y0130582D02*
X0062533Y0128113D01*
X0023304Y0160638D02*
X0022686Y0160021D01*
X0023304Y0160638D02*
X0023304Y0161872D01*
X0022686Y0162490D01*
X0022069Y0162490D01*
X0021452Y0161872D01*
X0021452Y0161255D01*
X0021452Y0161872D02*
X0020835Y0162490D01*
X0020218Y0162490D01*
X0019600Y0161872D01*
X0019600Y0160638D01*
X0020218Y0160021D01*
X0022686Y0163704D02*
X0022686Y0164321D01*
X0023304Y0164321D01*
X0023304Y0163704D01*
X0022686Y0163704D01*
X0022686Y0165546D02*
X0023304Y0166163D01*
X0023304Y0167397D01*
X0022686Y0168014D01*
X0022069Y0168014D01*
X0021452Y0167397D01*
X0021452Y0166780D01*
X0021452Y0167397D02*
X0020835Y0168014D01*
X0020218Y0168014D01*
X0019600Y0167397D01*
X0019600Y0166163D01*
X0020218Y0165546D01*
X0019600Y0169229D02*
X0022069Y0169229D01*
X0023304Y0170463D01*
X0022069Y0171698D01*
X0019600Y0171698D01*
D11*
X0023335Y0080619D02*
X0023335Y0009753D01*
X0094202Y0009753D01*
X0094202Y0080619D01*
X0023335Y0080619D01*
X0016879Y0147784D02*
X0016879Y0157784D01*
X0096879Y0157784D01*
X0096879Y0147784D01*
X0016879Y0147784D01*
X0095590Y0006603D02*
X0095592Y0006687D01*
X0095598Y0006770D01*
X0095608Y0006854D01*
X0095622Y0006936D01*
X0095640Y0007018D01*
X0095661Y0007099D01*
X0095687Y0007179D01*
X0095716Y0007257D01*
X0095749Y0007335D01*
X0095786Y0007410D01*
X0095826Y0007483D01*
X0095870Y0007555D01*
X0095917Y0007624D01*
X0095967Y0007692D01*
X0096020Y0007756D01*
X0096077Y0007818D01*
X0096136Y0007877D01*
X0096198Y0007934D01*
X0096262Y0007987D01*
X0096330Y0008037D01*
X0096399Y0008084D01*
X0096470Y0008128D01*
X0096544Y0008168D01*
X0096619Y0008205D01*
X0096697Y0008238D01*
X0096775Y0008267D01*
X0096855Y0008293D01*
X0096936Y0008314D01*
X0097018Y0008332D01*
X0097100Y0008346D01*
X0097184Y0008356D01*
X0097267Y0008362D01*
X0097351Y0008364D01*
X0097435Y0008362D01*
X0097518Y0008356D01*
X0097602Y0008346D01*
X0097684Y0008332D01*
X0097766Y0008314D01*
X0097847Y0008293D01*
X0097927Y0008267D01*
X0098005Y0008238D01*
X0098083Y0008205D01*
X0098158Y0008168D01*
X0098231Y0008128D01*
X0098303Y0008084D01*
X0098372Y0008037D01*
X0098440Y0007987D01*
X0098504Y0007934D01*
X0098566Y0007877D01*
X0098625Y0007818D01*
X0098682Y0007756D01*
X0098735Y0007692D01*
X0098785Y0007624D01*
X0098832Y0007555D01*
X0098876Y0007484D01*
X0098916Y0007410D01*
X0098953Y0007335D01*
X0098986Y0007257D01*
X0099015Y0007179D01*
X0099041Y0007099D01*
X0099062Y0007018D01*
X0099080Y0006936D01*
X0099094Y0006854D01*
X0099104Y0006770D01*
X0099110Y0006687D01*
X0099112Y0006603D01*
X0099110Y0006519D01*
X0099104Y0006436D01*
X0099094Y0006352D01*
X0099080Y0006270D01*
X0099062Y0006188D01*
X0099041Y0006107D01*
X0099015Y0006027D01*
X0098986Y0005949D01*
X0098953Y0005871D01*
X0098916Y0005796D01*
X0098876Y0005723D01*
X0098832Y0005651D01*
X0098785Y0005582D01*
X0098735Y0005514D01*
X0098682Y0005450D01*
X0098625Y0005388D01*
X0098566Y0005329D01*
X0098504Y0005272D01*
X0098440Y0005219D01*
X0098372Y0005169D01*
X0098303Y0005122D01*
X0098232Y0005078D01*
X0098158Y0005038D01*
X0098083Y0005001D01*
X0098005Y0004968D01*
X0097927Y0004939D01*
X0097847Y0004913D01*
X0097766Y0004892D01*
X0097684Y0004874D01*
X0097602Y0004860D01*
X0097518Y0004850D01*
X0097435Y0004844D01*
X0097351Y0004842D01*
X0097267Y0004844D01*
X0097184Y0004850D01*
X0097100Y0004860D01*
X0097018Y0004874D01*
X0096936Y0004892D01*
X0096855Y0004913D01*
X0096775Y0004939D01*
X0096697Y0004968D01*
X0096619Y0005001D01*
X0096544Y0005038D01*
X0096471Y0005078D01*
X0096399Y0005122D01*
X0096330Y0005169D01*
X0096262Y0005219D01*
X0096198Y0005272D01*
X0096136Y0005329D01*
X0096077Y0005388D01*
X0096020Y0005450D01*
X0095967Y0005514D01*
X0095917Y0005582D01*
X0095870Y0005651D01*
X0095826Y0005722D01*
X0095786Y0005796D01*
X0095749Y0005871D01*
X0095716Y0005949D01*
X0095687Y0006027D01*
X0095661Y0006107D01*
X0095640Y0006188D01*
X0095622Y0006270D01*
X0095608Y0006352D01*
X0095598Y0006436D01*
X0095592Y0006519D01*
X0095590Y0006603D01*
D12*
X0071213Y0007038D02*
X0071213Y0007805D01*
X0070446Y0008572D01*
X0068911Y0008572D01*
X0068144Y0007805D01*
X0066609Y0008572D02*
X0063540Y0008572D01*
X0063540Y0003969D01*
X0062005Y0004736D02*
X0061238Y0003969D01*
X0059703Y0003969D01*
X0058936Y0004736D01*
X0062005Y0007805D01*
X0062005Y0004736D01*
X0063540Y0006270D02*
X0065075Y0006270D01*
X0068144Y0003969D02*
X0071213Y0007038D01*
X0071213Y0003969D02*
X0068144Y0003969D01*
X0062005Y0007805D02*
X0061238Y0008572D01*
X0059703Y0008572D01*
X0058936Y0007805D01*
X0058936Y0004736D01*
X0057402Y0004736D02*
X0056634Y0003969D01*
X0055100Y0003969D01*
X0054332Y0004736D01*
X0057402Y0007805D01*
X0057402Y0004736D01*
X0057402Y0007805D02*
X0056634Y0008572D01*
X0055100Y0008572D01*
X0054332Y0007805D01*
X0054332Y0004736D01*
X0052798Y0004736D02*
X0052030Y0003969D01*
X0050496Y0003969D01*
X0049728Y0004736D01*
X0048194Y0003969D02*
X0048194Y0008572D01*
X0046659Y0007038D01*
X0045124Y0008572D01*
X0045124Y0003969D01*
X0043590Y0004736D02*
X0042822Y0003969D01*
X0041288Y0003969D01*
X0040520Y0004736D01*
X0038986Y0003969D02*
X0037451Y0003969D01*
X0038219Y0003969D02*
X0038219Y0008572D01*
X0038986Y0008572D02*
X0037451Y0008572D01*
X0040520Y0007805D02*
X0040520Y0007038D01*
X0041288Y0006270D01*
X0042822Y0006270D01*
X0043590Y0005503D01*
X0043590Y0004736D01*
X0043590Y0007805D02*
X0042822Y0008572D01*
X0041288Y0008572D01*
X0040520Y0007805D01*
X0049728Y0007805D02*
X0050496Y0008572D01*
X0052030Y0008572D01*
X0052798Y0007805D01*
X0052798Y0007038D01*
X0052030Y0006270D01*
X0052798Y0005503D01*
X0052798Y0004736D01*
X0052030Y0006270D02*
X0051263Y0006270D01*
X0061547Y0098942D02*
X0061547Y0101244D01*
X0062315Y0102011D01*
X0063849Y0102011D01*
X0064617Y0101244D01*
X0064617Y0098942D01*
X0066151Y0098942D02*
X0061547Y0098942D01*
X0064617Y0100476D02*
X0066151Y0102011D01*
X0065384Y0103546D02*
X0066151Y0104313D01*
X0066151Y0105848D01*
X0065384Y0106615D01*
X0063849Y0106615D01*
X0063082Y0105848D01*
X0063082Y0105080D01*
X0063849Y0103546D01*
X0061547Y0103546D01*
X0061547Y0106615D01*
X0076736Y0106930D02*
X0076736Y0105395D01*
X0077504Y0104628D01*
X0077504Y0103093D02*
X0079038Y0103093D01*
X0079806Y0102326D01*
X0079806Y0100024D01*
X0079806Y0101558D02*
X0081340Y0103093D01*
X0081340Y0104628D02*
X0078271Y0107697D01*
X0077504Y0107697D01*
X0076736Y0106930D01*
X0077504Y0103093D02*
X0076736Y0102326D01*
X0076736Y0100024D01*
X0081340Y0100024D01*
X0081340Y0104628D02*
X0081340Y0107697D01*
X0091264Y0106556D02*
X0095868Y0106556D01*
X0095868Y0105021D02*
X0095868Y0108091D01*
X0095868Y0103487D02*
X0094333Y0101952D01*
X0094333Y0102719D02*
X0094333Y0100417D01*
X0095868Y0100417D02*
X0091264Y0100417D01*
X0091264Y0102719D01*
X0092031Y0103487D01*
X0093566Y0103487D01*
X0094333Y0102719D01*
X0092798Y0105021D02*
X0091264Y0106556D01*
X0043372Y0111429D02*
X0043372Y0114498D01*
X0043372Y0116033D02*
X0043372Y0119102D01*
X0043372Y0117568D02*
X0038768Y0117568D01*
X0040302Y0116033D01*
X0038768Y0111429D02*
X0043372Y0111429D01*
X0030600Y0105848D02*
X0025996Y0105848D01*
X0028298Y0103546D01*
X0028298Y0106615D01*
X0028298Y0102011D02*
X0026763Y0102011D01*
X0025996Y0101244D01*
X0025996Y0098942D01*
X0030600Y0098942D01*
X0029065Y0098942D02*
X0029065Y0101244D01*
X0028298Y0102011D01*
X0029065Y0100476D02*
X0030600Y0102011D01*
X0016191Y0102011D02*
X0014656Y0100476D01*
X0014656Y0101244D02*
X0014656Y0098942D01*
X0016191Y0098942D02*
X0011587Y0098942D01*
X0011587Y0101244D01*
X0012354Y0102011D01*
X0013889Y0102011D01*
X0014656Y0101244D01*
X0015423Y0103546D02*
X0016191Y0104313D01*
X0016191Y0105848D01*
X0015423Y0106615D01*
X0014656Y0106615D01*
X0013889Y0105848D01*
X0013889Y0105080D01*
X0013889Y0105848D02*
X0013121Y0106615D01*
X0012354Y0106615D01*
X0011587Y0105848D01*
X0011587Y0104313D01*
X0012354Y0103546D01*
D13*
X0020861Y0106138D03*
X0020861Y0100338D03*
X0034877Y0100338D03*
X0034877Y0106138D03*
X0070822Y0106138D03*
X0070822Y0100338D03*
X0085928Y0100297D03*
X0085928Y0106097D03*
X0100456Y0106097D03*
X0100456Y0100297D03*
M02*
