G75*
%MOIN*%
%OFA0B0*%
%FSLAX25Y25*%
%IPPOS*%
%LPD*%
%AMOC8*
5,1,8,0,0,1.08239X$1,22.5*
%
%ADD10OC8,0.07000*%
%ADD11C,0.01200*%
%ADD12C,0.04000*%
D10*
X0021879Y0152784D03*
X0031879Y0152784D03*
X0041879Y0152784D03*
X0051879Y0152784D03*
X0061879Y0152784D03*
X0071879Y0152784D03*
X0081879Y0152784D03*
X0091879Y0152784D03*
D11*
X0095413Y0159413D02*
X0058613Y0159413D01*
X0052213Y0153013D01*
X0051879Y0152784D01*
X0042613Y0153013D02*
X0052213Y0162613D01*
X0097013Y0162613D01*
X0105013Y0154613D01*
X0105013Y0113013D01*
X0103902Y0105013D01*
X0103902Y0030550D01*
X0071413Y0033890D02*
X0068198Y0030225D01*
X0071413Y0033890D02*
X0071413Y0092213D01*
X0082613Y0111413D02*
X0089013Y0111413D01*
X0090613Y0113013D01*
X0090613Y0143413D01*
X0082613Y0151413D01*
X0081879Y0152784D01*
X0073013Y0151413D02*
X0071879Y0152784D01*
X0073013Y0151413D02*
X0073013Y0127413D01*
X0084213Y0116213D01*
X0085813Y0116213D01*
X0082613Y0111413D02*
X0077813Y0116213D01*
X0034613Y0116213D01*
X0028213Y0117813D02*
X0061813Y0151413D01*
X0061879Y0152784D01*
X0042613Y0153013D02*
X0041879Y0152784D01*
X0031879Y0152784D02*
X0031413Y0151413D01*
X0031413Y0137013D01*
X0015413Y0121013D01*
X0015413Y0114613D01*
X0031413Y0098613D01*
X0055413Y0098613D01*
X0028213Y0117813D02*
X0020213Y0117813D01*
X0011112Y0140828D02*
X0021813Y0151413D01*
X0021879Y0152784D01*
X0011112Y0140828D02*
X0011112Y0024891D01*
X0100213Y0154613D02*
X0095413Y0159413D01*
X0100213Y0154613D02*
X0100213Y0116213D01*
D12*
X0011112Y0024891D03*
X0055413Y0098613D03*
X0071413Y0092213D03*
X0085813Y0116213D03*
X0100213Y0116213D03*
X0103902Y0030550D03*
X0068198Y0030225D03*
X0034613Y0116213D03*
X0020213Y0117813D03*
M02*
