G75*
%MOIN*%
%OFA0B0*%
%FSLAX25Y25*%
%IPPOS*%
%LPD*%
%AMOC8*
5,1,8,0,0,1.08239X$1,22.5*
%
%ADD10C,0.10800*%
%ADD11R,0.06312X0.05131*%
%ADD12R,0.06312X0.07296*%
%ADD13OC8,0.07800*%
%ADD14R,0.14973X0.07887*%
%ADD15C,0.04800*%
D10*
X0008513Y0008513D03*
X0107312Y0174241D03*
D11*
X0100461Y0132154D03*
X0100461Y0124280D03*
X0100461Y0107154D03*
X0100461Y0099280D03*
X0085934Y0099280D03*
X0085934Y0107154D03*
X0085934Y0124280D03*
X0085934Y0132154D03*
X0070816Y0132154D03*
X0070816Y0124280D03*
X0070816Y0107154D03*
X0070816Y0099280D03*
X0034871Y0099280D03*
X0034871Y0107154D03*
X0034871Y0124280D03*
X0034871Y0132154D03*
X0020855Y0132154D03*
X0020855Y0124280D03*
X0020855Y0107154D03*
X0020855Y0099280D03*
D12*
X0024763Y0075107D03*
X0024763Y0067627D03*
X0024763Y0060146D03*
X0024763Y0052666D03*
X0024763Y0045186D03*
X0024763Y0037706D03*
X0024763Y0030225D03*
X0024763Y0022745D03*
X0024763Y0015265D03*
X0092774Y0015265D03*
X0092774Y0022745D03*
X0092774Y0030225D03*
X0092774Y0037706D03*
X0092774Y0045186D03*
X0092774Y0052666D03*
X0092774Y0060146D03*
X0092774Y0067627D03*
X0092774Y0075107D03*
D13*
X0091879Y0152784D03*
X0081879Y0152784D03*
X0071879Y0152784D03*
X0061879Y0152784D03*
X0051879Y0152784D03*
X0041879Y0152784D03*
X0031879Y0152784D03*
X0021879Y0152784D03*
D14*
X0051800Y0122076D03*
X0051800Y0106328D03*
D15*
X0055413Y0098613D03*
X0071413Y0092213D03*
X0085813Y0116213D03*
X0100213Y0116213D03*
X0103902Y0030550D03*
X0068198Y0030225D03*
X0034613Y0116213D03*
X0020213Y0117813D03*
X0011112Y0024891D03*
M02*
