G75*
%MOIN*%
%OFA0B0*%
%FSLAX25Y25*%
%IPPOS*%
%LPD*%
%AMOC8*
5,1,8,0,0,1.08239X$1,22.5*
%
%ADD10C,0.00000*%
%ADD11R,0.05512X0.04331*%
%ADD12R,0.05512X0.06496*%
%ADD13OC8,0.07000*%
%ADD14R,0.14173X0.07087*%
%ADD15C,0.01600*%
%ADD16C,0.01200*%
%ADD17C,0.04000*%
D10*
X0001013Y0001013D02*
X0001013Y0183296D01*
X0115186Y0183296D01*
X0115186Y0001013D01*
X0001013Y0001013D01*
X0003513Y0008513D02*
X0003515Y0008654D01*
X0003521Y0008795D01*
X0003531Y0008935D01*
X0003545Y0009075D01*
X0003563Y0009215D01*
X0003584Y0009354D01*
X0003610Y0009493D01*
X0003639Y0009631D01*
X0003673Y0009767D01*
X0003710Y0009903D01*
X0003751Y0010038D01*
X0003796Y0010172D01*
X0003845Y0010304D01*
X0003897Y0010435D01*
X0003953Y0010564D01*
X0004013Y0010691D01*
X0004076Y0010817D01*
X0004142Y0010941D01*
X0004213Y0011064D01*
X0004286Y0011184D01*
X0004363Y0011302D01*
X0004443Y0011418D01*
X0004527Y0011531D01*
X0004613Y0011642D01*
X0004703Y0011751D01*
X0004796Y0011857D01*
X0004891Y0011960D01*
X0004990Y0012061D01*
X0005091Y0012159D01*
X0005195Y0012254D01*
X0005302Y0012346D01*
X0005411Y0012435D01*
X0005523Y0012520D01*
X0005637Y0012603D01*
X0005753Y0012683D01*
X0005872Y0012759D01*
X0005993Y0012831D01*
X0006115Y0012901D01*
X0006240Y0012966D01*
X0006366Y0013029D01*
X0006494Y0013087D01*
X0006624Y0013142D01*
X0006755Y0013194D01*
X0006888Y0013241D01*
X0007022Y0013285D01*
X0007157Y0013326D01*
X0007293Y0013362D01*
X0007430Y0013394D01*
X0007568Y0013423D01*
X0007706Y0013448D01*
X0007846Y0013468D01*
X0007986Y0013485D01*
X0008126Y0013498D01*
X0008267Y0013507D01*
X0008407Y0013512D01*
X0008548Y0013513D01*
X0008689Y0013510D01*
X0008830Y0013503D01*
X0008970Y0013492D01*
X0009110Y0013477D01*
X0009250Y0013458D01*
X0009389Y0013436D01*
X0009527Y0013409D01*
X0009665Y0013379D01*
X0009801Y0013344D01*
X0009937Y0013306D01*
X0010071Y0013264D01*
X0010205Y0013218D01*
X0010337Y0013169D01*
X0010467Y0013115D01*
X0010596Y0013058D01*
X0010723Y0012998D01*
X0010849Y0012934D01*
X0010972Y0012866D01*
X0011094Y0012795D01*
X0011214Y0012721D01*
X0011331Y0012643D01*
X0011446Y0012562D01*
X0011559Y0012478D01*
X0011670Y0012391D01*
X0011778Y0012300D01*
X0011883Y0012207D01*
X0011986Y0012110D01*
X0012086Y0012011D01*
X0012183Y0011909D01*
X0012277Y0011804D01*
X0012368Y0011697D01*
X0012456Y0011587D01*
X0012541Y0011475D01*
X0012623Y0011360D01*
X0012702Y0011243D01*
X0012777Y0011124D01*
X0012849Y0011003D01*
X0012917Y0010880D01*
X0012982Y0010755D01*
X0013044Y0010628D01*
X0013101Y0010499D01*
X0013156Y0010369D01*
X0013206Y0010238D01*
X0013253Y0010105D01*
X0013296Y0009971D01*
X0013335Y0009835D01*
X0013370Y0009699D01*
X0013402Y0009562D01*
X0013429Y0009424D01*
X0013453Y0009285D01*
X0013473Y0009145D01*
X0013489Y0009005D01*
X0013501Y0008865D01*
X0013509Y0008724D01*
X0013513Y0008583D01*
X0013513Y0008443D01*
X0013509Y0008302D01*
X0013501Y0008161D01*
X0013489Y0008021D01*
X0013473Y0007881D01*
X0013453Y0007741D01*
X0013429Y0007602D01*
X0013402Y0007464D01*
X0013370Y0007327D01*
X0013335Y0007191D01*
X0013296Y0007055D01*
X0013253Y0006921D01*
X0013206Y0006788D01*
X0013156Y0006657D01*
X0013101Y0006527D01*
X0013044Y0006398D01*
X0012982Y0006271D01*
X0012917Y0006146D01*
X0012849Y0006023D01*
X0012777Y0005902D01*
X0012702Y0005783D01*
X0012623Y0005666D01*
X0012541Y0005551D01*
X0012456Y0005439D01*
X0012368Y0005329D01*
X0012277Y0005222D01*
X0012183Y0005117D01*
X0012086Y0005015D01*
X0011986Y0004916D01*
X0011883Y0004819D01*
X0011778Y0004726D01*
X0011670Y0004635D01*
X0011559Y0004548D01*
X0011446Y0004464D01*
X0011331Y0004383D01*
X0011214Y0004305D01*
X0011094Y0004231D01*
X0010972Y0004160D01*
X0010849Y0004092D01*
X0010723Y0004028D01*
X0010596Y0003968D01*
X0010467Y0003911D01*
X0010337Y0003857D01*
X0010205Y0003808D01*
X0010071Y0003762D01*
X0009937Y0003720D01*
X0009801Y0003682D01*
X0009665Y0003647D01*
X0009527Y0003617D01*
X0009389Y0003590D01*
X0009250Y0003568D01*
X0009110Y0003549D01*
X0008970Y0003534D01*
X0008830Y0003523D01*
X0008689Y0003516D01*
X0008548Y0003513D01*
X0008407Y0003514D01*
X0008267Y0003519D01*
X0008126Y0003528D01*
X0007986Y0003541D01*
X0007846Y0003558D01*
X0007706Y0003578D01*
X0007568Y0003603D01*
X0007430Y0003632D01*
X0007293Y0003664D01*
X0007157Y0003700D01*
X0007022Y0003741D01*
X0006888Y0003785D01*
X0006755Y0003832D01*
X0006624Y0003884D01*
X0006494Y0003939D01*
X0006366Y0003997D01*
X0006240Y0004060D01*
X0006115Y0004125D01*
X0005993Y0004195D01*
X0005872Y0004267D01*
X0005753Y0004343D01*
X0005637Y0004423D01*
X0005523Y0004506D01*
X0005411Y0004591D01*
X0005302Y0004680D01*
X0005195Y0004772D01*
X0005091Y0004867D01*
X0004990Y0004965D01*
X0004891Y0005066D01*
X0004796Y0005169D01*
X0004703Y0005275D01*
X0004613Y0005384D01*
X0004527Y0005495D01*
X0004443Y0005608D01*
X0004363Y0005724D01*
X0004286Y0005842D01*
X0004213Y0005962D01*
X0004142Y0006085D01*
X0004076Y0006209D01*
X0004013Y0006335D01*
X0003953Y0006462D01*
X0003897Y0006591D01*
X0003845Y0006722D01*
X0003796Y0006854D01*
X0003751Y0006988D01*
X0003710Y0007123D01*
X0003673Y0007259D01*
X0003639Y0007395D01*
X0003610Y0007533D01*
X0003584Y0007672D01*
X0003563Y0007811D01*
X0003545Y0007951D01*
X0003531Y0008091D01*
X0003521Y0008231D01*
X0003515Y0008372D01*
X0003513Y0008513D01*
X0102312Y0174241D02*
X0102314Y0174382D01*
X0102320Y0174523D01*
X0102330Y0174663D01*
X0102344Y0174803D01*
X0102362Y0174943D01*
X0102383Y0175082D01*
X0102409Y0175221D01*
X0102438Y0175359D01*
X0102472Y0175495D01*
X0102509Y0175631D01*
X0102550Y0175766D01*
X0102595Y0175900D01*
X0102644Y0176032D01*
X0102696Y0176163D01*
X0102752Y0176292D01*
X0102812Y0176419D01*
X0102875Y0176545D01*
X0102941Y0176669D01*
X0103012Y0176792D01*
X0103085Y0176912D01*
X0103162Y0177030D01*
X0103242Y0177146D01*
X0103326Y0177259D01*
X0103412Y0177370D01*
X0103502Y0177479D01*
X0103595Y0177585D01*
X0103690Y0177688D01*
X0103789Y0177789D01*
X0103890Y0177887D01*
X0103994Y0177982D01*
X0104101Y0178074D01*
X0104210Y0178163D01*
X0104322Y0178248D01*
X0104436Y0178331D01*
X0104552Y0178411D01*
X0104671Y0178487D01*
X0104792Y0178559D01*
X0104914Y0178629D01*
X0105039Y0178694D01*
X0105165Y0178757D01*
X0105293Y0178815D01*
X0105423Y0178870D01*
X0105554Y0178922D01*
X0105687Y0178969D01*
X0105821Y0179013D01*
X0105956Y0179054D01*
X0106092Y0179090D01*
X0106229Y0179122D01*
X0106367Y0179151D01*
X0106505Y0179176D01*
X0106645Y0179196D01*
X0106785Y0179213D01*
X0106925Y0179226D01*
X0107066Y0179235D01*
X0107206Y0179240D01*
X0107347Y0179241D01*
X0107488Y0179238D01*
X0107629Y0179231D01*
X0107769Y0179220D01*
X0107909Y0179205D01*
X0108049Y0179186D01*
X0108188Y0179164D01*
X0108326Y0179137D01*
X0108464Y0179107D01*
X0108600Y0179072D01*
X0108736Y0179034D01*
X0108870Y0178992D01*
X0109004Y0178946D01*
X0109136Y0178897D01*
X0109266Y0178843D01*
X0109395Y0178786D01*
X0109522Y0178726D01*
X0109648Y0178662D01*
X0109771Y0178594D01*
X0109893Y0178523D01*
X0110013Y0178449D01*
X0110130Y0178371D01*
X0110245Y0178290D01*
X0110358Y0178206D01*
X0110469Y0178119D01*
X0110577Y0178028D01*
X0110682Y0177935D01*
X0110785Y0177838D01*
X0110885Y0177739D01*
X0110982Y0177637D01*
X0111076Y0177532D01*
X0111167Y0177425D01*
X0111255Y0177315D01*
X0111340Y0177203D01*
X0111422Y0177088D01*
X0111501Y0176971D01*
X0111576Y0176852D01*
X0111648Y0176731D01*
X0111716Y0176608D01*
X0111781Y0176483D01*
X0111843Y0176356D01*
X0111900Y0176227D01*
X0111955Y0176097D01*
X0112005Y0175966D01*
X0112052Y0175833D01*
X0112095Y0175699D01*
X0112134Y0175563D01*
X0112169Y0175427D01*
X0112201Y0175290D01*
X0112228Y0175152D01*
X0112252Y0175013D01*
X0112272Y0174873D01*
X0112288Y0174733D01*
X0112300Y0174593D01*
X0112308Y0174452D01*
X0112312Y0174311D01*
X0112312Y0174171D01*
X0112308Y0174030D01*
X0112300Y0173889D01*
X0112288Y0173749D01*
X0112272Y0173609D01*
X0112252Y0173469D01*
X0112228Y0173330D01*
X0112201Y0173192D01*
X0112169Y0173055D01*
X0112134Y0172919D01*
X0112095Y0172783D01*
X0112052Y0172649D01*
X0112005Y0172516D01*
X0111955Y0172385D01*
X0111900Y0172255D01*
X0111843Y0172126D01*
X0111781Y0171999D01*
X0111716Y0171874D01*
X0111648Y0171751D01*
X0111576Y0171630D01*
X0111501Y0171511D01*
X0111422Y0171394D01*
X0111340Y0171279D01*
X0111255Y0171167D01*
X0111167Y0171057D01*
X0111076Y0170950D01*
X0110982Y0170845D01*
X0110885Y0170743D01*
X0110785Y0170644D01*
X0110682Y0170547D01*
X0110577Y0170454D01*
X0110469Y0170363D01*
X0110358Y0170276D01*
X0110245Y0170192D01*
X0110130Y0170111D01*
X0110013Y0170033D01*
X0109893Y0169959D01*
X0109771Y0169888D01*
X0109648Y0169820D01*
X0109522Y0169756D01*
X0109395Y0169696D01*
X0109266Y0169639D01*
X0109136Y0169585D01*
X0109004Y0169536D01*
X0108870Y0169490D01*
X0108736Y0169448D01*
X0108600Y0169410D01*
X0108464Y0169375D01*
X0108326Y0169345D01*
X0108188Y0169318D01*
X0108049Y0169296D01*
X0107909Y0169277D01*
X0107769Y0169262D01*
X0107629Y0169251D01*
X0107488Y0169244D01*
X0107347Y0169241D01*
X0107206Y0169242D01*
X0107066Y0169247D01*
X0106925Y0169256D01*
X0106785Y0169269D01*
X0106645Y0169286D01*
X0106505Y0169306D01*
X0106367Y0169331D01*
X0106229Y0169360D01*
X0106092Y0169392D01*
X0105956Y0169428D01*
X0105821Y0169469D01*
X0105687Y0169513D01*
X0105554Y0169560D01*
X0105423Y0169612D01*
X0105293Y0169667D01*
X0105165Y0169725D01*
X0105039Y0169788D01*
X0104914Y0169853D01*
X0104792Y0169923D01*
X0104671Y0169995D01*
X0104552Y0170071D01*
X0104436Y0170151D01*
X0104322Y0170234D01*
X0104210Y0170319D01*
X0104101Y0170408D01*
X0103994Y0170500D01*
X0103890Y0170595D01*
X0103789Y0170693D01*
X0103690Y0170794D01*
X0103595Y0170897D01*
X0103502Y0171003D01*
X0103412Y0171112D01*
X0103326Y0171223D01*
X0103242Y0171336D01*
X0103162Y0171452D01*
X0103085Y0171570D01*
X0103012Y0171690D01*
X0102941Y0171813D01*
X0102875Y0171937D01*
X0102812Y0172063D01*
X0102752Y0172190D01*
X0102696Y0172319D01*
X0102644Y0172450D01*
X0102595Y0172582D01*
X0102550Y0172716D01*
X0102509Y0172851D01*
X0102472Y0172987D01*
X0102438Y0173123D01*
X0102409Y0173261D01*
X0102383Y0173400D01*
X0102362Y0173539D01*
X0102344Y0173679D01*
X0102330Y0173819D01*
X0102320Y0173959D01*
X0102314Y0174100D01*
X0102312Y0174241D01*
D11*
X0100461Y0132154D03*
X0100461Y0124280D03*
X0100461Y0107154D03*
X0100461Y0099280D03*
X0085934Y0099280D03*
X0085934Y0107154D03*
X0085934Y0124280D03*
X0085934Y0132154D03*
X0070816Y0132154D03*
X0070816Y0124280D03*
X0070816Y0107154D03*
X0070816Y0099280D03*
X0034871Y0099280D03*
X0034871Y0107154D03*
X0034871Y0124280D03*
X0034871Y0132154D03*
X0020855Y0132154D03*
X0020855Y0124280D03*
X0020855Y0107154D03*
X0020855Y0099280D03*
D12*
X0024763Y0075107D03*
X0024763Y0067627D03*
X0024763Y0060146D03*
X0024763Y0052666D03*
X0024763Y0045186D03*
X0024763Y0037706D03*
X0024763Y0030225D03*
X0024763Y0022745D03*
X0024763Y0015265D03*
X0092774Y0015265D03*
X0092774Y0022745D03*
X0092774Y0030225D03*
X0092774Y0037706D03*
X0092774Y0045186D03*
X0092774Y0052666D03*
X0092774Y0060146D03*
X0092774Y0067627D03*
X0092774Y0075107D03*
D13*
X0091879Y0152784D03*
X0081879Y0152784D03*
X0071879Y0152784D03*
X0061879Y0152784D03*
X0051879Y0152784D03*
X0041879Y0152784D03*
X0031879Y0152784D03*
X0021879Y0152784D03*
D14*
X0051800Y0122076D03*
X0051800Y0106328D03*
D15*
X0050785Y0099984D02*
X0050613Y0099567D01*
X0050613Y0097658D01*
X0051343Y0095894D01*
X0052694Y0094543D01*
X0053861Y0094060D01*
X0069913Y0061381D01*
X0080460Y0017892D01*
X0080474Y0017553D01*
X0080618Y0017241D01*
X0080699Y0016907D01*
X0080899Y0016633D01*
X0081041Y0016325D01*
X0081294Y0016092D01*
X0081497Y0015814D01*
X0081786Y0015638D01*
X0084656Y0012990D01*
X0085044Y0012581D01*
X0085150Y0012534D01*
X0085235Y0012455D01*
X0085765Y0012260D01*
X0086280Y0012031D01*
X0086396Y0012028D01*
X0086505Y0011988D01*
X0087068Y0012011D01*
X0087219Y0012007D01*
X0087219Y0011460D01*
X0087645Y0010430D01*
X0088432Y0009643D01*
X0089462Y0009217D01*
X0096087Y0009217D01*
X0097116Y0009643D01*
X0097904Y0010430D01*
X0098330Y0011460D01*
X0098330Y0019388D01*
X0099484Y0019397D01*
X0099977Y0019397D01*
X0100542Y0019360D01*
X0100649Y0019397D01*
X0100763Y0019397D01*
X0101286Y0019614D01*
X0101822Y0019796D01*
X0101908Y0019871D01*
X0102013Y0019914D01*
X0102413Y0020315D01*
X0102838Y0020689D01*
X0102889Y0020791D01*
X0102969Y0020871D01*
X0103186Y0021394D01*
X0105450Y0025995D01*
X0106621Y0026480D01*
X0107972Y0027831D01*
X0108702Y0029595D01*
X0108702Y0031504D01*
X0107972Y0033269D01*
X0106621Y0034619D01*
X0104857Y0035350D01*
X0102948Y0035350D01*
X0101183Y0034619D01*
X0099833Y0033269D01*
X0099102Y0031504D01*
X0099102Y0029595D01*
X0099349Y0028998D01*
X0098330Y0026928D01*
X0098330Y0042876D01*
X0098850Y0042985D01*
X0099476Y0043101D01*
X0099511Y0043124D01*
X0099551Y0043132D01*
X0100077Y0043491D01*
X0100611Y0043838D01*
X0100634Y0043872D01*
X0100668Y0043895D01*
X0101016Y0044428D01*
X0102837Y0047076D01*
X0103095Y0047334D01*
X0103217Y0047628D01*
X0103397Y0047891D01*
X0103473Y0048247D01*
X0103613Y0048584D01*
X0103613Y0048902D01*
X0103679Y0049214D01*
X0103613Y0049572D01*
X0103613Y0094315D01*
X0103774Y0094315D01*
X0104803Y0094741D01*
X0105591Y0095529D01*
X0106017Y0096558D01*
X0106017Y0102003D01*
X0105591Y0103032D01*
X0105405Y0103217D01*
X0105591Y0103403D01*
X0106017Y0104432D01*
X0106017Y0109877D01*
X0105591Y0110906D01*
X0104803Y0111693D01*
X0103774Y0112120D01*
X0103613Y0112120D01*
X0103613Y0112824D01*
X0104282Y0113494D01*
X0105013Y0115258D01*
X0105013Y0117167D01*
X0104282Y0118932D01*
X0103862Y0119351D01*
X0104803Y0119741D01*
X0105591Y0120529D01*
X0106017Y0121558D01*
X0106017Y0127003D01*
X0105591Y0128032D01*
X0104803Y0128819D01*
X0104655Y0128881D01*
X0104658Y0128884D01*
X0104895Y0129294D01*
X0105017Y0129752D01*
X0105017Y0131872D01*
X0100744Y0131872D01*
X0100744Y0132437D01*
X0100179Y0132437D01*
X0100179Y0136120D01*
X0097469Y0136120D01*
X0097011Y0135997D01*
X0096600Y0135760D01*
X0096265Y0135425D01*
X0096028Y0135014D01*
X0095906Y0134557D01*
X0095905Y0132437D01*
X0100179Y0132437D01*
X0100179Y0131872D01*
X0095906Y0131872D01*
X0095906Y0129752D01*
X0096028Y0129294D01*
X0096265Y0128884D01*
X0096268Y0128881D01*
X0096119Y0128819D01*
X0095332Y0128032D01*
X0094906Y0127003D01*
X0094906Y0121558D01*
X0095332Y0120529D01*
X0096119Y0119741D01*
X0096709Y0119497D01*
X0096143Y0118932D01*
X0095413Y0117167D01*
X0095413Y0115258D01*
X0096143Y0113494D01*
X0096813Y0112824D01*
X0096813Y0111981D01*
X0096119Y0111693D01*
X0095332Y0110906D01*
X0094906Y0109877D01*
X0094906Y0104432D01*
X0095332Y0103403D01*
X0095517Y0103217D01*
X0095332Y0103032D01*
X0094906Y0102003D01*
X0094906Y0096558D01*
X0095332Y0095529D01*
X0096119Y0094741D01*
X0096813Y0094454D01*
X0096813Y0079618D01*
X0096636Y0079795D01*
X0096225Y0080032D01*
X0095767Y0080155D01*
X0093352Y0080155D01*
X0093352Y0075685D01*
X0092196Y0075685D01*
X0092196Y0074529D01*
X0088219Y0074529D01*
X0088219Y0073035D01*
X0087645Y0072461D01*
X0087219Y0071432D01*
X0087219Y0063615D01*
X0082813Y0068021D01*
X0082813Y0076404D01*
X0088695Y0082287D01*
X0089213Y0083536D01*
X0089213Y0094315D01*
X0089247Y0094315D01*
X0090276Y0094741D01*
X0091063Y0095529D01*
X0091490Y0096558D01*
X0091490Y0102003D01*
X0091063Y0103032D01*
X0090878Y0103217D01*
X0091063Y0103403D01*
X0091490Y0104432D01*
X0091490Y0109877D01*
X0091063Y0110906D01*
X0090276Y0111693D01*
X0089247Y0112120D01*
X0089213Y0112120D01*
X0089213Y0112824D01*
X0089882Y0113494D01*
X0090613Y0115258D01*
X0090613Y0117167D01*
X0089882Y0118932D01*
X0089425Y0119389D01*
X0090276Y0119741D01*
X0091063Y0120529D01*
X0091490Y0121558D01*
X0091490Y0127003D01*
X0091063Y0128032D01*
X0090276Y0128819D01*
X0090127Y0128881D01*
X0090130Y0128884D01*
X0090367Y0129294D01*
X0090490Y0129752D01*
X0090490Y0131872D01*
X0086217Y0131872D01*
X0086217Y0132437D01*
X0090490Y0132437D01*
X0090490Y0134557D01*
X0090367Y0135014D01*
X0090130Y0135425D01*
X0089795Y0135760D01*
X0089385Y0135997D01*
X0088927Y0136120D01*
X0086217Y0136120D01*
X0086217Y0132437D01*
X0085651Y0132437D01*
X0085651Y0131872D01*
X0081378Y0131872D01*
X0081378Y0129752D01*
X0081501Y0129294D01*
X0081738Y0128884D01*
X0081740Y0128881D01*
X0081592Y0128819D01*
X0080804Y0128032D01*
X0080378Y0127003D01*
X0080378Y0121558D01*
X0080804Y0120529D01*
X0081592Y0119741D01*
X0082272Y0119460D01*
X0081743Y0118932D01*
X0081013Y0117167D01*
X0081013Y0115258D01*
X0081743Y0113494D01*
X0082413Y0112824D01*
X0082413Y0112033D01*
X0081592Y0111693D01*
X0080804Y0110906D01*
X0080378Y0109877D01*
X0080378Y0104432D01*
X0080804Y0103403D01*
X0080990Y0103217D01*
X0080804Y0103032D01*
X0080378Y0102003D01*
X0080378Y0096558D01*
X0080804Y0095529D01*
X0081592Y0094741D01*
X0082413Y0094401D01*
X0082413Y0085621D01*
X0077487Y0080695D01*
X0076530Y0079739D01*
X0076013Y0078489D01*
X0076013Y0065936D01*
X0076530Y0064687D01*
X0082930Y0058287D01*
X0083887Y0057330D01*
X0085136Y0056813D01*
X0087219Y0056813D01*
X0087219Y0019878D01*
X0086906Y0020166D01*
X0076503Y0063058D01*
X0076479Y0063437D01*
X0076345Y0063709D01*
X0076274Y0064004D01*
X0076050Y0064310D01*
X0059964Y0097058D01*
X0060213Y0097658D01*
X0060213Y0099567D01*
X0059953Y0100195D01*
X0060473Y0100411D01*
X0061260Y0101198D01*
X0061687Y0102227D01*
X0061687Y0110428D01*
X0061260Y0111457D01*
X0060473Y0112245D01*
X0059444Y0112671D01*
X0044156Y0112671D01*
X0043127Y0112245D01*
X0042340Y0111457D01*
X0041913Y0110428D01*
X0041913Y0102227D01*
X0042340Y0101198D01*
X0043127Y0100411D01*
X0044156Y0099984D01*
X0050785Y0099984D01*
X0050613Y0098522D02*
X0040427Y0098522D01*
X0040427Y0100120D02*
X0043828Y0100120D01*
X0042124Y0101719D02*
X0040427Y0101719D01*
X0040427Y0102003D02*
X0040000Y0103032D01*
X0039815Y0103217D01*
X0040000Y0103403D01*
X0040427Y0104432D01*
X0040427Y0109877D01*
X0040000Y0110906D01*
X0039213Y0111693D01*
X0038184Y0112120D01*
X0038013Y0112120D01*
X0038013Y0112824D01*
X0038682Y0113494D01*
X0039413Y0115258D01*
X0039413Y0117167D01*
X0038682Y0118932D01*
X0038265Y0119349D01*
X0039213Y0119741D01*
X0040000Y0120529D01*
X0040427Y0121558D01*
X0040427Y0127003D01*
X0040000Y0128032D01*
X0039213Y0128819D01*
X0039064Y0128881D01*
X0039067Y0128884D01*
X0039304Y0129294D01*
X0039427Y0129752D01*
X0039427Y0131872D01*
X0035154Y0131872D01*
X0035154Y0132437D01*
X0039427Y0132437D01*
X0039427Y0134557D01*
X0039304Y0135014D01*
X0039067Y0135425D01*
X0038732Y0135760D01*
X0038322Y0135997D01*
X0037864Y0136120D01*
X0035154Y0136120D01*
X0035154Y0132437D01*
X0034588Y0132437D01*
X0034588Y0131872D01*
X0030315Y0131872D01*
X0030315Y0129752D01*
X0030438Y0129294D01*
X0030675Y0128884D01*
X0030677Y0128881D01*
X0030529Y0128819D01*
X0029741Y0128032D01*
X0029315Y0127003D01*
X0029315Y0121558D01*
X0029741Y0120529D01*
X0030529Y0119741D01*
X0031112Y0119500D01*
X0030543Y0118932D01*
X0029813Y0117167D01*
X0029813Y0115258D01*
X0030543Y0113494D01*
X0031213Y0112824D01*
X0031213Y0111977D01*
X0030529Y0111693D01*
X0029741Y0110906D01*
X0029315Y0109877D01*
X0029315Y0104432D01*
X0029741Y0103403D01*
X0029927Y0103217D01*
X0029741Y0103032D01*
X0029315Y0102003D01*
X0029315Y0096558D01*
X0029741Y0095529D01*
X0030529Y0094741D01*
X0031213Y0094458D01*
X0031213Y0072762D01*
X0031190Y0072701D01*
X0031213Y0072088D01*
X0031213Y0071473D01*
X0031237Y0071414D01*
X0031411Y0066655D01*
X0030318Y0065311D01*
X0030318Y0071432D01*
X0029892Y0072461D01*
X0029318Y0073035D01*
X0029318Y0074529D01*
X0025341Y0074529D01*
X0025341Y0075685D01*
X0029318Y0075685D01*
X0029318Y0078592D01*
X0029196Y0079050D01*
X0028959Y0079460D01*
X0028624Y0079795D01*
X0028213Y0080032D01*
X0027755Y0080155D01*
X0025341Y0080155D01*
X0025341Y0075685D01*
X0024185Y0075685D01*
X0024185Y0080155D01*
X0021770Y0080155D01*
X0021312Y0080032D01*
X0020901Y0079795D01*
X0020566Y0079460D01*
X0020329Y0079050D01*
X0020207Y0078592D01*
X0020207Y0075685D01*
X0024185Y0075685D01*
X0024185Y0074529D01*
X0020207Y0074529D01*
X0020207Y0073035D01*
X0019633Y0072461D01*
X0019207Y0071432D01*
X0019207Y0048586D01*
X0017977Y0048586D01*
X0015613Y0051744D01*
X0015613Y0078004D01*
X0023095Y0085487D01*
X0023613Y0086736D01*
X0023613Y0094315D01*
X0024168Y0094315D01*
X0025197Y0094741D01*
X0025985Y0095529D01*
X0026411Y0096558D01*
X0026411Y0102003D01*
X0025985Y0103032D01*
X0025799Y0103217D01*
X0025985Y0103403D01*
X0026411Y0104432D01*
X0026411Y0109877D01*
X0025985Y0110906D01*
X0025197Y0111693D01*
X0024168Y0112120D01*
X0023613Y0112120D01*
X0023613Y0114424D01*
X0024282Y0115094D01*
X0025013Y0116858D01*
X0025013Y0118767D01*
X0024695Y0119533D01*
X0025197Y0119741D01*
X0025985Y0120529D01*
X0026411Y0121558D01*
X0026411Y0127003D01*
X0025985Y0128032D01*
X0025197Y0128819D01*
X0025049Y0128881D01*
X0025051Y0128884D01*
X0025288Y0129294D01*
X0025411Y0129752D01*
X0025411Y0131872D01*
X0021138Y0131872D01*
X0021138Y0132437D01*
X0025411Y0132437D01*
X0025411Y0134557D01*
X0025288Y0135014D01*
X0025051Y0135425D01*
X0024716Y0135760D01*
X0024306Y0135997D01*
X0023848Y0136120D01*
X0021138Y0136120D01*
X0021138Y0132437D01*
X0020572Y0132437D01*
X0020572Y0131872D01*
X0016299Y0131872D01*
X0016299Y0129752D01*
X0016422Y0129294D01*
X0016659Y0128884D01*
X0016662Y0128881D01*
X0016513Y0128819D01*
X0015725Y0128032D01*
X0015299Y0127003D01*
X0015299Y0121558D01*
X0015725Y0120529D01*
X0016020Y0120234D01*
X0015413Y0118767D01*
X0015413Y0116858D01*
X0016143Y0115094D01*
X0016813Y0114424D01*
X0016813Y0111817D01*
X0016513Y0111693D01*
X0015725Y0110906D01*
X0015299Y0109877D01*
X0015299Y0104432D01*
X0015725Y0103403D01*
X0015911Y0103217D01*
X0015725Y0103032D01*
X0015299Y0102003D01*
X0015299Y0096558D01*
X0015725Y0095529D01*
X0016513Y0094741D01*
X0016813Y0094617D01*
X0016813Y0088821D01*
X0009330Y0081339D01*
X0008813Y0080089D01*
X0008813Y0050856D01*
X0008751Y0050427D01*
X0008813Y0050185D01*
X0008813Y0049936D01*
X0008978Y0049536D01*
X0009086Y0049116D01*
X0009235Y0048917D01*
X0009330Y0048687D01*
X0009637Y0048380D01*
X0013298Y0043490D01*
X0013393Y0043260D01*
X0013700Y0042954D01*
X0013959Y0042607D01*
X0014173Y0042480D01*
X0014350Y0042303D01*
X0014750Y0042138D01*
X0015123Y0041917D01*
X0015369Y0041881D01*
X0015599Y0041786D01*
X0016033Y0041786D01*
X0016461Y0041724D01*
X0016703Y0041786D01*
X0019207Y0041786D01*
X0019207Y0018813D01*
X0018700Y0018813D01*
X0015801Y0023669D01*
X0015912Y0023937D01*
X0015912Y0025846D01*
X0015181Y0027610D01*
X0013831Y0028961D01*
X0012067Y0029691D01*
X0010157Y0029691D01*
X0008393Y0028961D01*
X0007043Y0027610D01*
X0006312Y0025846D01*
X0006312Y0023937D01*
X0007043Y0022172D01*
X0008393Y0020822D01*
X0009972Y0020168D01*
X0011282Y0017973D01*
X0010462Y0018313D01*
X0006563Y0018313D01*
X0005813Y0018002D01*
X0005813Y0178496D01*
X0098467Y0178496D01*
X0097512Y0176190D01*
X0097512Y0172292D01*
X0099004Y0168690D01*
X0101761Y0165933D01*
X0105362Y0164441D01*
X0109261Y0164441D01*
X0110386Y0164907D01*
X0110386Y0005813D01*
X0018002Y0005813D01*
X0018313Y0006563D01*
X0018313Y0010462D01*
X0017670Y0012013D01*
X0019207Y0012013D01*
X0019207Y0011460D01*
X0019633Y0010430D01*
X0020421Y0009643D01*
X0021450Y0009217D01*
X0028075Y0009217D01*
X0029105Y0009643D01*
X0029892Y0010430D01*
X0030318Y0011460D01*
X0030318Y0026825D01*
X0064810Y0026825D01*
X0065479Y0026156D01*
X0067244Y0025425D01*
X0069153Y0025425D01*
X0070917Y0026156D01*
X0072268Y0027506D01*
X0072998Y0029270D01*
X0072998Y0031180D01*
X0072268Y0032944D01*
X0070917Y0034294D01*
X0069153Y0035025D01*
X0067244Y0035025D01*
X0065479Y0034294D01*
X0064810Y0033625D01*
X0030318Y0033625D01*
X0030318Y0057819D01*
X0032174Y0058201D01*
X0032677Y0058253D01*
X0032831Y0058336D01*
X0033003Y0058372D01*
X0033422Y0058655D01*
X0033867Y0058896D01*
X0033978Y0059032D01*
X0034123Y0059130D01*
X0034401Y0059553D01*
X0037422Y0063270D01*
X0037806Y0063683D01*
X0037846Y0063792D01*
X0037920Y0063883D01*
X0038081Y0064423D01*
X0038277Y0064950D01*
X0038273Y0065067D01*
X0038307Y0065179D01*
X0038249Y0065739D01*
X0038013Y0072212D01*
X0038013Y0094315D01*
X0038184Y0094315D01*
X0039213Y0094741D01*
X0040000Y0095529D01*
X0040427Y0096558D01*
X0040427Y0102003D01*
X0039915Y0103317D02*
X0041913Y0103317D01*
X0041913Y0104916D02*
X0040427Y0104916D01*
X0040427Y0106514D02*
X0041913Y0106514D01*
X0041913Y0108113D02*
X0040427Y0108113D01*
X0040427Y0109711D02*
X0041913Y0109711D01*
X0042279Y0111310D02*
X0039596Y0111310D01*
X0038097Y0112908D02*
X0068013Y0112908D01*
X0068013Y0112120D02*
X0067503Y0112120D01*
X0066474Y0111693D01*
X0065686Y0110906D01*
X0065260Y0109877D01*
X0065260Y0104432D01*
X0065686Y0103403D01*
X0065872Y0103217D01*
X0065686Y0103032D01*
X0065260Y0102003D01*
X0065260Y0096558D01*
X0065686Y0095529D01*
X0066474Y0094741D01*
X0067149Y0094462D01*
X0066613Y0093167D01*
X0066613Y0091258D01*
X0067343Y0089494D01*
X0068694Y0088143D01*
X0070458Y0087413D01*
X0072367Y0087413D01*
X0074132Y0088143D01*
X0075482Y0089494D01*
X0076213Y0091258D01*
X0076213Y0093167D01*
X0075482Y0094932D01*
X0075415Y0094998D01*
X0075945Y0095529D01*
X0076372Y0096558D01*
X0076372Y0102003D01*
X0075945Y0103032D01*
X0075760Y0103217D01*
X0075945Y0103403D01*
X0076372Y0104432D01*
X0076372Y0109877D01*
X0075945Y0110906D01*
X0075158Y0111693D01*
X0074813Y0111836D01*
X0074813Y0119598D01*
X0075158Y0119741D01*
X0075945Y0120529D01*
X0076372Y0121558D01*
X0076372Y0127003D01*
X0075945Y0128032D01*
X0075158Y0128819D01*
X0075009Y0128881D01*
X0075012Y0128884D01*
X0075249Y0129294D01*
X0075372Y0129752D01*
X0075372Y0131872D01*
X0071098Y0131872D01*
X0071098Y0132437D01*
X0070533Y0132437D01*
X0070533Y0131872D01*
X0066260Y0131872D01*
X0066260Y0129752D01*
X0066383Y0129294D01*
X0066619Y0128884D01*
X0066622Y0128881D01*
X0066474Y0128819D01*
X0065686Y0128032D01*
X0065512Y0127613D01*
X0064336Y0127613D01*
X0063087Y0127095D01*
X0062004Y0126013D01*
X0061687Y0126013D01*
X0061687Y0126176D01*
X0061260Y0127205D01*
X0060473Y0127993D01*
X0059444Y0128419D01*
X0054013Y0128419D01*
X0054013Y0129689D01*
X0053495Y0130939D01*
X0040695Y0143739D01*
X0039739Y0144695D01*
X0038489Y0145213D01*
X0029621Y0145213D01*
X0026813Y0148021D01*
X0026813Y0148809D01*
X0026879Y0148875D01*
X0029269Y0146484D01*
X0034488Y0146484D01*
X0036879Y0148875D01*
X0039269Y0146484D01*
X0044488Y0146484D01*
X0046879Y0148875D01*
X0049269Y0146484D01*
X0054488Y0146484D01*
X0056879Y0148875D01*
X0059269Y0146484D01*
X0064488Y0146484D01*
X0066879Y0148875D01*
X0069269Y0146484D01*
X0074488Y0146484D01*
X0076879Y0148875D01*
X0079269Y0146484D01*
X0084488Y0146484D01*
X0087586Y0149582D01*
X0089683Y0147484D01*
X0091679Y0147484D01*
X0091679Y0152584D01*
X0092079Y0152584D01*
X0092079Y0152984D01*
X0097179Y0152984D01*
X0097179Y0154980D01*
X0094074Y0158084D01*
X0092079Y0158084D01*
X0092079Y0152984D01*
X0091679Y0152984D01*
X0091679Y0158084D01*
X0089683Y0158084D01*
X0087586Y0155987D01*
X0084488Y0159084D01*
X0079269Y0159084D01*
X0076879Y0156694D01*
X0074488Y0159084D01*
X0069269Y0159084D01*
X0066879Y0156694D01*
X0064488Y0159084D01*
X0059269Y0159084D01*
X0056879Y0156694D01*
X0054488Y0159084D01*
X0049269Y0159084D01*
X0046879Y0156694D01*
X0044488Y0159084D01*
X0039269Y0159084D01*
X0036879Y0156694D01*
X0034488Y0159084D01*
X0029269Y0159084D01*
X0026879Y0156694D01*
X0024488Y0159084D01*
X0019269Y0159084D01*
X0015579Y0155394D01*
X0015579Y0150175D01*
X0019269Y0146484D01*
X0020013Y0146484D01*
X0020013Y0145936D01*
X0020530Y0144687D01*
X0021487Y0143730D01*
X0026287Y0138930D01*
X0027536Y0138413D01*
X0036404Y0138413D01*
X0046398Y0128419D01*
X0044156Y0128419D01*
X0043127Y0127993D01*
X0042340Y0127205D01*
X0041913Y0126176D01*
X0041913Y0117975D01*
X0042340Y0116946D01*
X0043127Y0116159D01*
X0044156Y0115732D01*
X0059444Y0115732D01*
X0060473Y0116159D01*
X0061260Y0116946D01*
X0061687Y0117975D01*
X0061687Y0119213D01*
X0064089Y0119213D01*
X0065339Y0119730D01*
X0065912Y0120303D01*
X0066474Y0119741D01*
X0067503Y0119315D01*
X0068013Y0119315D01*
X0068013Y0112120D01*
X0066090Y0111310D02*
X0061321Y0111310D01*
X0061687Y0109711D02*
X0065260Y0109711D01*
X0065260Y0108113D02*
X0061687Y0108113D01*
X0061687Y0106514D02*
X0065260Y0106514D01*
X0065260Y0104916D02*
X0061687Y0104916D01*
X0061687Y0103317D02*
X0065772Y0103317D01*
X0065260Y0101719D02*
X0061476Y0101719D01*
X0059984Y0100120D02*
X0065260Y0100120D01*
X0065260Y0098522D02*
X0060213Y0098522D01*
X0060030Y0096923D02*
X0065260Y0096923D01*
X0065890Y0095325D02*
X0060816Y0095325D01*
X0061601Y0093726D02*
X0066844Y0093726D01*
X0066613Y0092128D02*
X0062386Y0092128D01*
X0063171Y0090529D02*
X0066914Y0090529D01*
X0067906Y0088931D02*
X0063956Y0088931D01*
X0064742Y0087332D02*
X0082413Y0087332D01*
X0082413Y0085734D02*
X0065527Y0085734D01*
X0066312Y0084135D02*
X0080927Y0084135D01*
X0079328Y0082537D02*
X0067097Y0082537D01*
X0067882Y0080938D02*
X0077730Y0080938D01*
X0076365Y0079340D02*
X0068668Y0079340D01*
X0069453Y0077741D02*
X0076013Y0077741D01*
X0076013Y0076143D02*
X0070238Y0076143D01*
X0071023Y0074544D02*
X0076013Y0074544D01*
X0076013Y0072946D02*
X0071808Y0072946D01*
X0072593Y0071347D02*
X0076013Y0071347D01*
X0076013Y0069749D02*
X0073379Y0069749D01*
X0074164Y0068150D02*
X0076013Y0068150D01*
X0076013Y0066552D02*
X0074949Y0066552D01*
X0075734Y0064953D02*
X0076420Y0064953D01*
X0076484Y0063355D02*
X0077862Y0063355D01*
X0076819Y0061756D02*
X0079461Y0061756D01*
X0081059Y0060158D02*
X0077207Y0060158D01*
X0077594Y0058559D02*
X0082658Y0058559D01*
X0084779Y0056960D02*
X0077982Y0056960D01*
X0078370Y0055362D02*
X0087219Y0055362D01*
X0087219Y0053763D02*
X0078757Y0053763D01*
X0079145Y0052165D02*
X0087219Y0052165D01*
X0087219Y0050566D02*
X0079533Y0050566D01*
X0079921Y0048968D02*
X0087219Y0048968D01*
X0087219Y0047369D02*
X0080308Y0047369D01*
X0080696Y0045771D02*
X0087219Y0045771D01*
X0087219Y0044172D02*
X0081084Y0044172D01*
X0081471Y0042574D02*
X0087219Y0042574D01*
X0087219Y0040975D02*
X0081859Y0040975D01*
X0082247Y0039377D02*
X0087219Y0039377D01*
X0087219Y0037778D02*
X0082634Y0037778D01*
X0083022Y0036180D02*
X0087219Y0036180D01*
X0087219Y0034581D02*
X0083410Y0034581D01*
X0083797Y0032983D02*
X0087219Y0032983D01*
X0087219Y0031384D02*
X0084185Y0031384D01*
X0084573Y0029786D02*
X0087219Y0029786D01*
X0087219Y0028187D02*
X0084961Y0028187D01*
X0085348Y0026589D02*
X0087219Y0026589D01*
X0087219Y0024990D02*
X0085736Y0024990D01*
X0086124Y0023392D02*
X0087219Y0023392D01*
X0087219Y0021793D02*
X0086511Y0021793D01*
X0086899Y0020195D02*
X0087219Y0020195D01*
X0083777Y0013801D02*
X0030318Y0013801D01*
X0030318Y0015399D02*
X0082045Y0015399D01*
X0080677Y0016998D02*
X0030318Y0016998D01*
X0030318Y0018596D02*
X0080290Y0018596D01*
X0079902Y0020195D02*
X0030318Y0020195D01*
X0030318Y0021793D02*
X0079514Y0021793D01*
X0079126Y0023392D02*
X0030318Y0023392D01*
X0030318Y0024990D02*
X0078739Y0024990D01*
X0078351Y0026589D02*
X0071350Y0026589D01*
X0072550Y0028187D02*
X0077963Y0028187D01*
X0077576Y0029786D02*
X0072998Y0029786D01*
X0072914Y0031384D02*
X0077188Y0031384D01*
X0076800Y0032983D02*
X0072229Y0032983D01*
X0070225Y0034581D02*
X0076413Y0034581D01*
X0076025Y0036180D02*
X0030318Y0036180D01*
X0030318Y0037778D02*
X0075637Y0037778D01*
X0075250Y0039377D02*
X0030318Y0039377D01*
X0030318Y0040975D02*
X0074862Y0040975D01*
X0074474Y0042574D02*
X0030318Y0042574D01*
X0030318Y0044172D02*
X0074086Y0044172D01*
X0073699Y0045771D02*
X0030318Y0045771D01*
X0030318Y0047369D02*
X0073311Y0047369D01*
X0072923Y0048968D02*
X0030318Y0048968D01*
X0030318Y0050566D02*
X0072536Y0050566D01*
X0072148Y0052165D02*
X0030318Y0052165D01*
X0030318Y0053763D02*
X0071760Y0053763D01*
X0071373Y0055362D02*
X0030318Y0055362D01*
X0030318Y0056960D02*
X0070985Y0056960D01*
X0070597Y0058559D02*
X0033280Y0058559D01*
X0034892Y0060158D02*
X0070210Y0060158D01*
X0069729Y0061756D02*
X0036192Y0061756D01*
X0037501Y0063355D02*
X0068943Y0063355D01*
X0068158Y0064953D02*
X0038277Y0064953D01*
X0038219Y0066552D02*
X0067373Y0066552D01*
X0066588Y0068150D02*
X0038161Y0068150D01*
X0038102Y0069749D02*
X0065803Y0069749D01*
X0065017Y0071347D02*
X0038044Y0071347D01*
X0038013Y0072946D02*
X0064232Y0072946D01*
X0063447Y0074544D02*
X0038013Y0074544D01*
X0038013Y0076143D02*
X0062662Y0076143D01*
X0061877Y0077741D02*
X0038013Y0077741D01*
X0038013Y0079340D02*
X0061091Y0079340D01*
X0060306Y0080938D02*
X0038013Y0080938D01*
X0038013Y0082537D02*
X0059521Y0082537D01*
X0058736Y0084135D02*
X0038013Y0084135D01*
X0038013Y0085734D02*
X0057951Y0085734D01*
X0057166Y0087332D02*
X0038013Y0087332D01*
X0038013Y0088931D02*
X0056380Y0088931D01*
X0055595Y0090529D02*
X0038013Y0090529D01*
X0038013Y0092128D02*
X0054810Y0092128D01*
X0054025Y0093726D02*
X0038013Y0093726D01*
X0039796Y0095325D02*
X0051912Y0095325D01*
X0050917Y0096923D02*
X0040427Y0096923D01*
X0031213Y0093726D02*
X0023613Y0093726D01*
X0023613Y0092128D02*
X0031213Y0092128D01*
X0031213Y0090529D02*
X0023613Y0090529D01*
X0023613Y0088931D02*
X0031213Y0088931D01*
X0031213Y0087332D02*
X0023613Y0087332D01*
X0023197Y0085734D02*
X0031213Y0085734D01*
X0031213Y0084135D02*
X0021744Y0084135D01*
X0020145Y0082537D02*
X0031213Y0082537D01*
X0031213Y0080938D02*
X0018546Y0080938D01*
X0016948Y0079340D02*
X0020497Y0079340D01*
X0020207Y0077741D02*
X0015613Y0077741D01*
X0015613Y0076143D02*
X0020207Y0076143D01*
X0020118Y0072946D02*
X0015613Y0072946D01*
X0015613Y0074544D02*
X0024185Y0074544D01*
X0025341Y0074544D02*
X0031213Y0074544D01*
X0031213Y0072946D02*
X0029407Y0072946D01*
X0030318Y0071347D02*
X0031240Y0071347D01*
X0031298Y0069749D02*
X0030318Y0069749D01*
X0030318Y0068150D02*
X0031356Y0068150D01*
X0031326Y0066552D02*
X0030318Y0066552D01*
X0031213Y0076143D02*
X0029318Y0076143D01*
X0029318Y0077741D02*
X0031213Y0077741D01*
X0031213Y0079340D02*
X0029029Y0079340D01*
X0025341Y0079340D02*
X0024185Y0079340D01*
X0024185Y0077741D02*
X0025341Y0077741D01*
X0025341Y0076143D02*
X0024185Y0076143D01*
X0019207Y0071347D02*
X0015613Y0071347D01*
X0015613Y0069749D02*
X0019207Y0069749D01*
X0019207Y0068150D02*
X0015613Y0068150D01*
X0015613Y0066552D02*
X0019207Y0066552D01*
X0019207Y0064953D02*
X0015613Y0064953D01*
X0015613Y0063355D02*
X0019207Y0063355D01*
X0019207Y0061756D02*
X0015613Y0061756D01*
X0015613Y0060158D02*
X0019207Y0060158D01*
X0019207Y0058559D02*
X0015613Y0058559D01*
X0015613Y0056960D02*
X0019207Y0056960D01*
X0019207Y0055362D02*
X0015613Y0055362D01*
X0015613Y0053763D02*
X0019207Y0053763D01*
X0019207Y0052165D02*
X0015613Y0052165D01*
X0016494Y0050566D02*
X0019207Y0050566D01*
X0019207Y0048968D02*
X0017691Y0048968D01*
X0014015Y0042574D02*
X0005813Y0042574D01*
X0005813Y0044172D02*
X0012787Y0044172D01*
X0011590Y0045771D02*
X0005813Y0045771D01*
X0005813Y0047369D02*
X0010393Y0047369D01*
X0009197Y0048968D02*
X0005813Y0048968D01*
X0005813Y0050566D02*
X0008771Y0050566D01*
X0008813Y0052165D02*
X0005813Y0052165D01*
X0005813Y0053763D02*
X0008813Y0053763D01*
X0008813Y0055362D02*
X0005813Y0055362D01*
X0005813Y0056960D02*
X0008813Y0056960D01*
X0008813Y0058559D02*
X0005813Y0058559D01*
X0005813Y0060158D02*
X0008813Y0060158D01*
X0008813Y0061756D02*
X0005813Y0061756D01*
X0005813Y0063355D02*
X0008813Y0063355D01*
X0008813Y0064953D02*
X0005813Y0064953D01*
X0005813Y0066552D02*
X0008813Y0066552D01*
X0008813Y0068150D02*
X0005813Y0068150D01*
X0005813Y0069749D02*
X0008813Y0069749D01*
X0008813Y0071347D02*
X0005813Y0071347D01*
X0005813Y0072946D02*
X0008813Y0072946D01*
X0008813Y0074544D02*
X0005813Y0074544D01*
X0005813Y0076143D02*
X0008813Y0076143D01*
X0008813Y0077741D02*
X0005813Y0077741D01*
X0005813Y0079340D02*
X0008813Y0079340D01*
X0009164Y0080938D02*
X0005813Y0080938D01*
X0005813Y0082537D02*
X0010528Y0082537D01*
X0012127Y0084135D02*
X0005813Y0084135D01*
X0005813Y0085734D02*
X0013725Y0085734D01*
X0015324Y0087332D02*
X0005813Y0087332D01*
X0005813Y0088931D02*
X0016813Y0088931D01*
X0016813Y0090529D02*
X0005813Y0090529D01*
X0005813Y0092128D02*
X0016813Y0092128D01*
X0016813Y0093726D02*
X0005813Y0093726D01*
X0005813Y0095325D02*
X0015930Y0095325D01*
X0015299Y0096923D02*
X0005813Y0096923D01*
X0005813Y0098522D02*
X0015299Y0098522D01*
X0015299Y0100120D02*
X0005813Y0100120D01*
X0005813Y0101719D02*
X0015299Y0101719D01*
X0015811Y0103317D02*
X0005813Y0103317D01*
X0005813Y0104916D02*
X0015299Y0104916D01*
X0015299Y0106514D02*
X0005813Y0106514D01*
X0005813Y0108113D02*
X0015299Y0108113D01*
X0015299Y0109711D02*
X0005813Y0109711D01*
X0005813Y0111310D02*
X0016130Y0111310D01*
X0016813Y0112908D02*
X0005813Y0112908D01*
X0005813Y0114507D02*
X0016730Y0114507D01*
X0015724Y0116105D02*
X0005813Y0116105D01*
X0005813Y0117704D02*
X0015413Y0117704D01*
X0015634Y0119302D02*
X0005813Y0119302D01*
X0005813Y0120901D02*
X0015571Y0120901D01*
X0015299Y0122499D02*
X0005813Y0122499D01*
X0005813Y0124098D02*
X0015299Y0124098D01*
X0015299Y0125696D02*
X0005813Y0125696D01*
X0005813Y0127295D02*
X0015420Y0127295D01*
X0016653Y0128894D02*
X0005813Y0128894D01*
X0005813Y0130492D02*
X0016299Y0130492D01*
X0016299Y0132437D02*
X0016299Y0134557D01*
X0016422Y0135014D01*
X0016659Y0135425D01*
X0016994Y0135760D01*
X0017404Y0135997D01*
X0017862Y0136120D01*
X0020572Y0136120D01*
X0020572Y0132437D01*
X0016299Y0132437D01*
X0016299Y0133689D02*
X0005813Y0133689D01*
X0005813Y0132091D02*
X0020572Y0132091D01*
X0021138Y0132091D02*
X0034588Y0132091D01*
X0034588Y0132437D02*
X0030315Y0132437D01*
X0030315Y0134557D01*
X0030438Y0135014D01*
X0030675Y0135425D01*
X0031010Y0135760D01*
X0031420Y0135997D01*
X0031878Y0136120D01*
X0034588Y0136120D01*
X0034588Y0132437D01*
X0035154Y0132091D02*
X0042726Y0132091D01*
X0041128Y0133689D02*
X0039427Y0133689D01*
X0039529Y0135288D02*
X0039146Y0135288D01*
X0037931Y0136886D02*
X0005813Y0136886D01*
X0005813Y0135288D02*
X0016580Y0135288D01*
X0020572Y0135288D02*
X0021138Y0135288D01*
X0021138Y0133689D02*
X0020572Y0133689D01*
X0025131Y0135288D02*
X0030595Y0135288D01*
X0030315Y0133689D02*
X0025411Y0133689D01*
X0025411Y0130492D02*
X0030315Y0130492D01*
X0030669Y0128894D02*
X0025057Y0128894D01*
X0026290Y0127295D02*
X0029436Y0127295D01*
X0029315Y0125696D02*
X0026411Y0125696D01*
X0026411Y0124098D02*
X0029315Y0124098D01*
X0029315Y0122499D02*
X0026411Y0122499D01*
X0026139Y0120901D02*
X0029587Y0120901D01*
X0030914Y0119302D02*
X0024791Y0119302D01*
X0025013Y0117704D02*
X0030035Y0117704D01*
X0029813Y0116105D02*
X0024701Y0116105D01*
X0023695Y0114507D02*
X0030124Y0114507D01*
X0031129Y0112908D02*
X0023613Y0112908D01*
X0025581Y0111310D02*
X0030145Y0111310D01*
X0029315Y0109711D02*
X0026411Y0109711D01*
X0026411Y0108113D02*
X0029315Y0108113D01*
X0029315Y0106514D02*
X0026411Y0106514D01*
X0026411Y0104916D02*
X0029315Y0104916D01*
X0029827Y0103317D02*
X0025899Y0103317D01*
X0026411Y0101719D02*
X0029315Y0101719D01*
X0029315Y0100120D02*
X0026411Y0100120D01*
X0026411Y0098522D02*
X0029315Y0098522D01*
X0029315Y0096923D02*
X0026411Y0096923D01*
X0025781Y0095325D02*
X0029945Y0095325D01*
X0039102Y0114507D02*
X0068013Y0114507D01*
X0068013Y0116105D02*
X0060344Y0116105D01*
X0061574Y0117704D02*
X0068013Y0117704D01*
X0068013Y0119302D02*
X0064306Y0119302D01*
X0063570Y0127295D02*
X0061170Y0127295D01*
X0066614Y0128894D02*
X0054013Y0128894D01*
X0053680Y0130492D02*
X0066260Y0130492D01*
X0066260Y0132437D02*
X0070533Y0132437D01*
X0070533Y0136120D01*
X0067823Y0136120D01*
X0067365Y0135997D01*
X0066955Y0135760D01*
X0066619Y0135425D01*
X0066383Y0135014D01*
X0066260Y0134557D01*
X0066260Y0132437D01*
X0066260Y0133689D02*
X0050744Y0133689D01*
X0049146Y0135288D02*
X0066540Y0135288D01*
X0070533Y0135288D02*
X0071098Y0135288D01*
X0071098Y0136120D02*
X0071098Y0132437D01*
X0075372Y0132437D01*
X0075372Y0134557D01*
X0075249Y0135014D01*
X0075012Y0135425D01*
X0074677Y0135760D01*
X0074266Y0135997D01*
X0073809Y0136120D01*
X0071098Y0136120D01*
X0071098Y0133689D02*
X0070533Y0133689D01*
X0070533Y0132091D02*
X0052343Y0132091D01*
X0047547Y0136886D02*
X0110386Y0136886D01*
X0110386Y0135288D02*
X0104737Y0135288D01*
X0104658Y0135425D02*
X0104323Y0135760D01*
X0103912Y0135997D01*
X0103454Y0136120D01*
X0100744Y0136120D01*
X0100744Y0132437D01*
X0105017Y0132437D01*
X0105017Y0134557D01*
X0104895Y0135014D01*
X0104658Y0135425D01*
X0105017Y0133689D02*
X0110386Y0133689D01*
X0110386Y0132091D02*
X0100744Y0132091D01*
X0100179Y0132091D02*
X0086217Y0132091D01*
X0085651Y0132091D02*
X0071098Y0132091D01*
X0075372Y0133689D02*
X0081378Y0133689D01*
X0081378Y0134557D02*
X0081378Y0132437D01*
X0085651Y0132437D01*
X0085651Y0136120D01*
X0082941Y0136120D01*
X0082483Y0135997D01*
X0082073Y0135760D01*
X0081738Y0135425D01*
X0081501Y0135014D01*
X0081378Y0134557D01*
X0081658Y0135288D02*
X0075091Y0135288D01*
X0075372Y0130492D02*
X0081378Y0130492D01*
X0081732Y0128894D02*
X0075018Y0128894D01*
X0076251Y0127295D02*
X0080499Y0127295D01*
X0080378Y0125696D02*
X0076372Y0125696D01*
X0076372Y0124098D02*
X0080378Y0124098D01*
X0080378Y0122499D02*
X0076372Y0122499D01*
X0076099Y0120901D02*
X0080650Y0120901D01*
X0082114Y0119302D02*
X0074813Y0119302D01*
X0074813Y0117704D02*
X0081235Y0117704D01*
X0081013Y0116105D02*
X0074813Y0116105D01*
X0074813Y0114507D02*
X0081324Y0114507D01*
X0082329Y0112908D02*
X0074813Y0112908D01*
X0075541Y0111310D02*
X0081208Y0111310D01*
X0080378Y0109711D02*
X0076372Y0109711D01*
X0076372Y0108113D02*
X0080378Y0108113D01*
X0080378Y0106514D02*
X0076372Y0106514D01*
X0076372Y0104916D02*
X0080378Y0104916D01*
X0080890Y0103317D02*
X0075860Y0103317D01*
X0076372Y0101719D02*
X0080378Y0101719D01*
X0080378Y0100120D02*
X0076372Y0100120D01*
X0076372Y0098522D02*
X0080378Y0098522D01*
X0080378Y0096923D02*
X0076372Y0096923D01*
X0075741Y0095325D02*
X0081008Y0095325D01*
X0082413Y0093726D02*
X0075981Y0093726D01*
X0076213Y0092128D02*
X0082413Y0092128D01*
X0082413Y0090529D02*
X0075911Y0090529D01*
X0074919Y0088931D02*
X0082413Y0088931D01*
X0087346Y0080938D02*
X0096813Y0080938D01*
X0096813Y0082537D02*
X0088799Y0082537D01*
X0089213Y0084135D02*
X0096813Y0084135D01*
X0096813Y0085734D02*
X0089213Y0085734D01*
X0089213Y0087332D02*
X0096813Y0087332D01*
X0096813Y0088931D02*
X0089213Y0088931D01*
X0089213Y0090529D02*
X0096813Y0090529D01*
X0096813Y0092128D02*
X0089213Y0092128D01*
X0089213Y0093726D02*
X0096813Y0093726D01*
X0095536Y0095325D02*
X0090859Y0095325D01*
X0091490Y0096923D02*
X0094906Y0096923D01*
X0094906Y0098522D02*
X0091490Y0098522D01*
X0091490Y0100120D02*
X0094906Y0100120D01*
X0094906Y0101719D02*
X0091490Y0101719D01*
X0090978Y0103317D02*
X0095417Y0103317D01*
X0094906Y0104916D02*
X0091490Y0104916D01*
X0091490Y0106514D02*
X0094906Y0106514D01*
X0094906Y0108113D02*
X0091490Y0108113D01*
X0091490Y0109711D02*
X0094906Y0109711D01*
X0095736Y0111310D02*
X0090659Y0111310D01*
X0089297Y0112908D02*
X0096729Y0112908D01*
X0095724Y0114507D02*
X0090302Y0114507D01*
X0090613Y0116105D02*
X0095413Y0116105D01*
X0095635Y0117704D02*
X0090390Y0117704D01*
X0089511Y0119302D02*
X0096514Y0119302D01*
X0095178Y0120901D02*
X0091218Y0120901D01*
X0091490Y0122499D02*
X0094906Y0122499D01*
X0094906Y0124098D02*
X0091490Y0124098D01*
X0091490Y0125696D02*
X0094906Y0125696D01*
X0095027Y0127295D02*
X0091369Y0127295D01*
X0090136Y0128894D02*
X0096260Y0128894D01*
X0095906Y0130492D02*
X0090490Y0130492D01*
X0090490Y0133689D02*
X0095906Y0133689D01*
X0096186Y0135288D02*
X0090209Y0135288D01*
X0086217Y0135288D02*
X0085651Y0135288D01*
X0085651Y0133689D02*
X0086217Y0133689D01*
X0086080Y0148076D02*
X0089092Y0148076D01*
X0091679Y0148076D02*
X0092079Y0148076D01*
X0092079Y0147484D02*
X0094074Y0147484D01*
X0097179Y0150589D01*
X0097179Y0152584D01*
X0092079Y0152584D01*
X0092079Y0147484D01*
X0092079Y0149674D02*
X0091679Y0149674D01*
X0091679Y0151273D02*
X0092079Y0151273D01*
X0092079Y0152871D02*
X0110386Y0152871D01*
X0110386Y0151273D02*
X0097179Y0151273D01*
X0096264Y0149674D02*
X0110386Y0149674D01*
X0110386Y0148076D02*
X0094665Y0148076D01*
X0097179Y0154470D02*
X0110386Y0154470D01*
X0110386Y0156068D02*
X0096090Y0156068D01*
X0094492Y0157667D02*
X0110386Y0157667D01*
X0110386Y0159265D02*
X0005813Y0159265D01*
X0005813Y0157667D02*
X0017852Y0157667D01*
X0016253Y0156068D02*
X0005813Y0156068D01*
X0005813Y0154470D02*
X0015579Y0154470D01*
X0015579Y0152871D02*
X0005813Y0152871D01*
X0005813Y0151273D02*
X0015579Y0151273D01*
X0016079Y0149674D02*
X0005813Y0149674D01*
X0005813Y0148076D02*
X0017678Y0148076D01*
X0020013Y0146477D02*
X0005813Y0146477D01*
X0005813Y0144879D02*
X0020451Y0144879D01*
X0021937Y0143280D02*
X0005813Y0143280D01*
X0005813Y0141682D02*
X0023535Y0141682D01*
X0025134Y0140083D02*
X0005813Y0140083D01*
X0005813Y0138485D02*
X0027363Y0138485D01*
X0028356Y0146477D02*
X0110386Y0146477D01*
X0110386Y0144879D02*
X0039295Y0144879D01*
X0041153Y0143280D02*
X0110386Y0143280D01*
X0110386Y0141682D02*
X0042752Y0141682D01*
X0044350Y0140083D02*
X0110386Y0140083D01*
X0110386Y0138485D02*
X0045949Y0138485D01*
X0044325Y0130492D02*
X0039427Y0130492D01*
X0039073Y0128894D02*
X0045923Y0128894D01*
X0042430Y0127295D02*
X0040306Y0127295D01*
X0040427Y0125696D02*
X0041913Y0125696D01*
X0041913Y0124098D02*
X0040427Y0124098D01*
X0040427Y0122499D02*
X0041913Y0122499D01*
X0041913Y0120901D02*
X0040155Y0120901D01*
X0041913Y0119302D02*
X0038311Y0119302D01*
X0039190Y0117704D02*
X0042026Y0117704D01*
X0043256Y0116105D02*
X0039413Y0116105D01*
X0035154Y0133689D02*
X0034588Y0133689D01*
X0034588Y0135288D02*
X0035154Y0135288D01*
X0036080Y0148076D02*
X0037678Y0148076D01*
X0037852Y0157667D02*
X0035906Y0157667D01*
X0027852Y0157667D02*
X0025906Y0157667D01*
X0026813Y0148076D02*
X0027678Y0148076D01*
X0046080Y0148076D02*
X0047678Y0148076D01*
X0047852Y0157667D02*
X0045906Y0157667D01*
X0055906Y0157667D02*
X0057852Y0157667D01*
X0057678Y0148076D02*
X0056080Y0148076D01*
X0066080Y0148076D02*
X0067678Y0148076D01*
X0067852Y0157667D02*
X0065906Y0157667D01*
X0075906Y0157667D02*
X0077852Y0157667D01*
X0077678Y0148076D02*
X0076080Y0148076D01*
X0085906Y0157667D02*
X0089266Y0157667D01*
X0087667Y0156068D02*
X0087504Y0156068D01*
X0091679Y0156068D02*
X0092079Y0156068D01*
X0092079Y0154470D02*
X0091679Y0154470D01*
X0091679Y0157667D02*
X0092079Y0157667D01*
X0098935Y0168856D02*
X0005813Y0168856D01*
X0005813Y0167258D02*
X0100436Y0167258D01*
X0102421Y0165659D02*
X0005813Y0165659D01*
X0005813Y0164061D02*
X0110386Y0164061D01*
X0110386Y0162462D02*
X0005813Y0162462D01*
X0005813Y0160864D02*
X0110386Y0160864D01*
X0098273Y0170455D02*
X0005813Y0170455D01*
X0005813Y0172053D02*
X0097611Y0172053D01*
X0097512Y0173652D02*
X0005813Y0173652D01*
X0005813Y0175250D02*
X0097512Y0175250D01*
X0097785Y0176849D02*
X0005813Y0176849D01*
X0005813Y0178447D02*
X0098447Y0178447D01*
X0100179Y0135288D02*
X0100744Y0135288D01*
X0100744Y0133689D02*
X0100179Y0133689D01*
X0105017Y0130492D02*
X0110386Y0130492D01*
X0110386Y0128894D02*
X0104663Y0128894D01*
X0105896Y0127295D02*
X0110386Y0127295D01*
X0110386Y0125696D02*
X0106017Y0125696D01*
X0106017Y0124098D02*
X0110386Y0124098D01*
X0110386Y0122499D02*
X0106017Y0122499D01*
X0105745Y0120901D02*
X0110386Y0120901D01*
X0110386Y0119302D02*
X0103911Y0119302D01*
X0104790Y0117704D02*
X0110386Y0117704D01*
X0110386Y0116105D02*
X0105013Y0116105D01*
X0104702Y0114507D02*
X0110386Y0114507D01*
X0110386Y0112908D02*
X0103697Y0112908D01*
X0105187Y0111310D02*
X0110386Y0111310D01*
X0110386Y0109711D02*
X0106017Y0109711D01*
X0106017Y0108113D02*
X0110386Y0108113D01*
X0110386Y0106514D02*
X0106017Y0106514D01*
X0106017Y0104916D02*
X0110386Y0104916D01*
X0110386Y0103317D02*
X0105505Y0103317D01*
X0106017Y0101719D02*
X0110386Y0101719D01*
X0110386Y0100120D02*
X0106017Y0100120D01*
X0106017Y0098522D02*
X0110386Y0098522D01*
X0110386Y0096923D02*
X0106017Y0096923D01*
X0105387Y0095325D02*
X0110386Y0095325D01*
X0110386Y0093726D02*
X0103613Y0093726D01*
X0103613Y0092128D02*
X0110386Y0092128D01*
X0110386Y0090529D02*
X0103613Y0090529D01*
X0103613Y0088931D02*
X0110386Y0088931D01*
X0110386Y0087332D02*
X0103613Y0087332D01*
X0103613Y0085734D02*
X0110386Y0085734D01*
X0110386Y0084135D02*
X0103613Y0084135D01*
X0103613Y0082537D02*
X0110386Y0082537D01*
X0110386Y0080938D02*
X0103613Y0080938D01*
X0103613Y0079340D02*
X0110386Y0079340D01*
X0110386Y0077741D02*
X0103613Y0077741D01*
X0103613Y0076143D02*
X0110386Y0076143D01*
X0110386Y0074544D02*
X0103613Y0074544D01*
X0103613Y0072946D02*
X0110386Y0072946D01*
X0110386Y0071347D02*
X0103613Y0071347D01*
X0103613Y0069749D02*
X0110386Y0069749D01*
X0110386Y0068150D02*
X0103613Y0068150D01*
X0103613Y0066552D02*
X0110386Y0066552D01*
X0110386Y0064953D02*
X0103613Y0064953D01*
X0103613Y0063355D02*
X0110386Y0063355D01*
X0110386Y0061756D02*
X0103613Y0061756D01*
X0103613Y0060158D02*
X0110386Y0060158D01*
X0110386Y0058559D02*
X0103613Y0058559D01*
X0103613Y0056960D02*
X0110386Y0056960D01*
X0110386Y0055362D02*
X0103613Y0055362D01*
X0103613Y0053763D02*
X0110386Y0053763D01*
X0110386Y0052165D02*
X0103613Y0052165D01*
X0103613Y0050566D02*
X0110386Y0050566D01*
X0110386Y0048968D02*
X0103627Y0048968D01*
X0103110Y0047369D02*
X0110386Y0047369D01*
X0110386Y0045771D02*
X0101940Y0045771D01*
X0100849Y0044172D02*
X0110386Y0044172D01*
X0110386Y0042574D02*
X0098330Y0042574D01*
X0098330Y0040975D02*
X0110386Y0040975D01*
X0110386Y0039377D02*
X0098330Y0039377D01*
X0098330Y0037778D02*
X0110386Y0037778D01*
X0110386Y0036180D02*
X0098330Y0036180D01*
X0098330Y0034581D02*
X0101146Y0034581D01*
X0099715Y0032983D02*
X0098330Y0032983D01*
X0098330Y0031384D02*
X0099102Y0031384D01*
X0099102Y0029786D02*
X0098330Y0029786D01*
X0098330Y0028187D02*
X0098950Y0028187D01*
X0104169Y0023392D02*
X0110386Y0023392D01*
X0110386Y0024990D02*
X0104956Y0024990D01*
X0106730Y0026589D02*
X0110386Y0026589D01*
X0110386Y0028187D02*
X0108119Y0028187D01*
X0108702Y0029786D02*
X0110386Y0029786D01*
X0110386Y0031384D02*
X0108702Y0031384D01*
X0108090Y0032983D02*
X0110386Y0032983D01*
X0110386Y0034581D02*
X0106659Y0034581D01*
X0103382Y0021793D02*
X0110386Y0021793D01*
X0110386Y0020195D02*
X0102293Y0020195D01*
X0098330Y0018596D02*
X0110386Y0018596D01*
X0110386Y0016998D02*
X0098330Y0016998D01*
X0098330Y0015399D02*
X0110386Y0015399D01*
X0110386Y0013801D02*
X0098330Y0013801D01*
X0098330Y0012202D02*
X0110386Y0012202D01*
X0110386Y0010604D02*
X0097976Y0010604D01*
X0087573Y0010604D02*
X0029964Y0010604D01*
X0030318Y0012202D02*
X0085896Y0012202D01*
X0066172Y0034581D02*
X0030318Y0034581D01*
X0030318Y0026589D02*
X0065047Y0026589D01*
X0085880Y0064953D02*
X0087219Y0064953D01*
X0087219Y0066552D02*
X0084282Y0066552D01*
X0082813Y0068150D02*
X0087219Y0068150D01*
X0087219Y0069749D02*
X0082813Y0069749D01*
X0082813Y0071347D02*
X0087219Y0071347D01*
X0088130Y0072946D02*
X0082813Y0072946D01*
X0082813Y0074544D02*
X0092196Y0074544D01*
X0092196Y0075685D02*
X0088218Y0075685D01*
X0088219Y0078592D01*
X0088341Y0079050D01*
X0088578Y0079460D01*
X0088913Y0079795D01*
X0089324Y0080032D01*
X0089782Y0080155D01*
X0092196Y0080155D01*
X0092196Y0075685D01*
X0092196Y0076143D02*
X0093352Y0076143D01*
X0093352Y0077741D02*
X0092196Y0077741D01*
X0092196Y0079340D02*
X0093352Y0079340D01*
X0088508Y0079340D02*
X0085748Y0079340D01*
X0084149Y0077741D02*
X0088219Y0077741D01*
X0088219Y0076143D02*
X0082813Y0076143D01*
X0110386Y0009005D02*
X0018313Y0009005D01*
X0018313Y0007407D02*
X0110386Y0007407D01*
X0019561Y0010604D02*
X0018254Y0010604D01*
X0017875Y0020195D02*
X0019207Y0020195D01*
X0019207Y0021793D02*
X0016921Y0021793D01*
X0015967Y0023392D02*
X0019207Y0023392D01*
X0019207Y0024990D02*
X0015912Y0024990D01*
X0015604Y0026589D02*
X0019207Y0026589D01*
X0019207Y0028187D02*
X0014604Y0028187D01*
X0019207Y0029786D02*
X0005813Y0029786D01*
X0005813Y0031384D02*
X0019207Y0031384D01*
X0019207Y0032983D02*
X0005813Y0032983D01*
X0005813Y0034581D02*
X0019207Y0034581D01*
X0019207Y0036180D02*
X0005813Y0036180D01*
X0005813Y0037778D02*
X0019207Y0037778D01*
X0019207Y0039377D02*
X0005813Y0039377D01*
X0005813Y0040975D02*
X0019207Y0040975D01*
X0007620Y0028187D02*
X0005813Y0028187D01*
X0005813Y0026589D02*
X0006619Y0026589D01*
X0006312Y0024990D02*
X0005813Y0024990D01*
X0005813Y0023392D02*
X0006537Y0023392D01*
X0005813Y0021793D02*
X0007422Y0021793D01*
X0005813Y0020195D02*
X0009907Y0020195D01*
X0010910Y0018596D02*
X0005813Y0018596D01*
D16*
X0011112Y0024891D02*
X0016770Y0015413D01*
X0021813Y0015413D01*
X0024763Y0015265D01*
X0024763Y0030225D02*
X0068198Y0030225D01*
X0083844Y0018365D02*
X0073129Y0062545D01*
X0055413Y0098613D01*
X0055413Y0101813D01*
X0052213Y0105013D01*
X0051800Y0106328D01*
X0051800Y0122076D02*
X0050613Y0122613D01*
X0050613Y0129013D01*
X0037813Y0141813D01*
X0028213Y0141813D01*
X0023413Y0146613D01*
X0023413Y0148213D01*
X0020213Y0151413D01*
X0021813Y0153013D01*
X0021879Y0152784D01*
X0020855Y0124280D02*
X0020213Y0124213D01*
X0020213Y0117813D01*
X0020213Y0108213D01*
X0020855Y0107154D01*
X0020855Y0099280D02*
X0020213Y0098613D01*
X0020213Y0087413D01*
X0012213Y0079413D01*
X0012213Y0050613D01*
X0016276Y0045186D01*
X0024763Y0045186D01*
X0024763Y0060146D02*
X0031655Y0061565D01*
X0034855Y0065502D01*
X0034613Y0072150D01*
X0034613Y0098613D01*
X0034871Y0099280D01*
X0034871Y0107154D02*
X0034613Y0108213D01*
X0034613Y0116213D01*
X0034613Y0124213D01*
X0034871Y0124280D01*
X0034318Y0123354D01*
X0034318Y0107354D02*
X0034871Y0107154D01*
X0020855Y0099280D02*
X0020902Y0097754D01*
X0051800Y0122076D02*
X0052213Y0122613D01*
X0063413Y0122613D01*
X0065013Y0124213D01*
X0069813Y0124213D01*
X0070816Y0124280D01*
X0071413Y0124213D01*
X0071413Y0108213D01*
X0070816Y0107154D01*
X0071463Y0107354D01*
X0070816Y0099280D02*
X0071413Y0098613D01*
X0071413Y0092213D01*
X0079413Y0077813D02*
X0085813Y0084213D01*
X0085813Y0098613D01*
X0085934Y0099280D01*
X0085934Y0107154D02*
X0085813Y0108213D01*
X0085813Y0116213D01*
X0085813Y0124213D01*
X0085934Y0124280D01*
X0100213Y0124213D02*
X0100213Y0116213D01*
X0100213Y0108213D01*
X0100461Y0107154D01*
X0100461Y0099280D02*
X0100213Y0098613D01*
X0100213Y0049260D01*
X0098192Y0046321D01*
X0092774Y0045186D01*
X0092774Y0060146D02*
X0089013Y0060213D01*
X0085813Y0060213D01*
X0079413Y0066613D01*
X0079413Y0077813D01*
X0069863Y0123354D02*
X0070816Y0124280D01*
X0100213Y0124213D02*
X0100461Y0124280D01*
X0103902Y0030550D02*
X0100087Y0022797D01*
X0099471Y0022797D01*
X0092774Y0022745D01*
X0092774Y0015265D02*
X0087044Y0015413D01*
X0083844Y0018365D01*
D17*
X0068198Y0030225D03*
X0103902Y0030550D03*
X0071413Y0092213D03*
X0085813Y0116213D03*
X0100213Y0116213D03*
X0055413Y0098613D03*
X0034613Y0116213D03*
X0020213Y0117813D03*
X0011112Y0024891D03*
M02*
