%
M48
M72
T01C0.02000
T02C0.03200
T03C0.04000
T04C0.04331
T05C0.05900
T06C0.09843
T07C0.11220
T08C0.11811
T09C0.12600
T10C0.12992
T11C0.13000
T12C0.13780
%
T01
X305641Y31000
X316664Y31079
X311501Y80200
X351428Y123362
X347570Y137457
X437097Y106118
X454617Y106118
X389696Y45882
X398318Y31709
X408554Y41945
X447924Y230528
X439656Y251394
X419971Y251394
X406585Y284465
X392412Y284465
X328633Y287220
X328751Y312457
X328633Y336039
X316822Y345488
X446349Y359661
X446349Y384858
X504223Y384071
X504223Y344307
X554381Y333165
X566428Y332890
X567609Y321079
X586900Y338795
X595956Y347850
X540837Y284858
X526664Y284858
X467215Y303756
X456585Y292732
M30
