%
M48
M72
T01C0.02000
T02C0.03200
T03C0.04000
T04C0.04331
T05C0.05900
T06C0.09843
T07C0.11220
T08C0.11811
T09C0.12600
T10C0.12992
T11C0.13000
T12C0.13780
%
T01
X409638Y309083
X400601Y316700
X424801Y331550
X446251Y350250
X468251Y350250
X435251Y370050
X370901Y381050
X361551Y384900
X285101Y356850
X383001Y253450
X407751Y235850
X412151Y229800
X388501Y225950
X430301Y211650
X473751Y168750
X479251Y151700
X463851Y144000
X449001Y147300
X412151Y119250
X407751Y114850
X358801Y58200
X358801Y46100
X337351Y37850
X328551Y51600
X307101Y58200
X298851Y107150
X181151Y18600
X170701Y38950
X160801Y48850
X80501Y121450
X205351Y218250
X111301Y312850
X103601Y381050
X491351Y225950
X529851Y243000
X540851Y251800
X559341Y278559
X567215Y278559
X576051Y282050
X583751Y274900
X575501Y261150
X634144Y198638
X634144Y187220
X571546Y177378
X568003Y184465
X568003Y192339
X557351Y161050
X526551Y135750
X532601Y112650
X556332Y122000
X560101Y90100
X560101Y77450
X535044Y79100
X556251Y52781
X534251Y34487
X529301Y35037
X513351Y33937
X503042Y45488
X441851Y15850
X581001Y353550
T02
X481117Y341972
X476117Y349472
X471117Y341972
X408900Y251469
X403900Y243969
X413900Y243969
X356314Y243315
X351314Y250815
X346314Y243315
T03
X349428Y262894
X359428Y262894
X369428Y262894
X405239Y262894
X415239Y262894
X425239Y262894
X454802Y245791
X454802Y235791
X454802Y225791
X454802Y215791
X454802Y205791
X454802Y195791
X428751Y191000
X418751Y191000
X418751Y181000
X428751Y181000
X428751Y171000
X418751Y171000
X418751Y161000
X428751Y161000
X428751Y151000
X418751Y151000
X418751Y141000
X428751Y141000
X428751Y131000
X418751Y131000
X418751Y121000
X428751Y121000
X428751Y111000
X418751Y111000
X418751Y101000
X428751Y101000
X428751Y91000
X418751Y91000
X418751Y81000
X428751Y81000
X428751Y71000
X418751Y71000
X418751Y61000
X428751Y61000
X428751Y51000
X418751Y51000
X418751Y41000
X428751Y41000
X428751Y31000
X418751Y31000
X403751Y11000
X393751Y11000
X383751Y11000
X373751Y11000
X363751Y11000
X353751Y11000
X343751Y11000
X333751Y11000
X313751Y11000
X303751Y11000
X293751Y11000
X283751Y11000
X273751Y11000
X263751Y11000
X253751Y11000
X243751Y11000
X223751Y11000
X213751Y11000
X203751Y11000
X193751Y11000
X183751Y11000
X173751Y11000
X163751Y11000
X153751Y11000
X101912Y8531
X101912Y18531
X101912Y28531
X101912Y38531
X101912Y48531
X101912Y58531
X101912Y68531
X101912Y78531
X102751Y201000
X112751Y201000
X122751Y201000
X132751Y201000
X142751Y201000
X152751Y201000
X162751Y201000
X172751Y201000
X182751Y201000
X192751Y201000
X213751Y201000
X223751Y201000
X233751Y201000
X243751Y201000
X253751Y201000
X263751Y201000
X273751Y201000
X283751Y201000
X303751Y201000
X313751Y201000
X323751Y201000
X333751Y201000
X343751Y201000
X353751Y201000
X363751Y201000
X373751Y201000
X418751Y201000
X428751Y201000
X482570Y201039
X482570Y191039
X482570Y181039
X482570Y171039
X482570Y161039
X482570Y139858
X482570Y129858
X482570Y108677
X482570Y98677
X482570Y88677
X482570Y78677
X482570Y68677
X482570Y58677
X456979Y55055
X456979Y45055
X456979Y35055
X456979Y25055
X456979Y65055
X456979Y75055
X456979Y85055
X456979Y95055
X516034Y98362
X516034Y108362
X516034Y129858
X516034Y139858
X516034Y161039
X516034Y171039
X516034Y181039
X516034Y191039
X516034Y201039
X516034Y211039
X482570Y211039
X549499Y214661
X549499Y204661
X549499Y194661
X549499Y179228
X549499Y169228
X549499Y147732
X549499Y137732
X549499Y116236
X549499Y106236
X584932Y107417
X584932Y97417
X584932Y87417
X584932Y77417
X584932Y67417
X584932Y57417
X584932Y47417
X584932Y37417
X584932Y27417
X584932Y17417
X584932Y7299
X516034Y68835
X516034Y78835
X607278Y102613
X617278Y108013
X607278Y113413
X607278Y124213
X607278Y135013
X607278Y145813
X607278Y156613
X607278Y167413
X617278Y162013
X617278Y151213
X617278Y140413
X617278Y129613
X617278Y118813
X586507Y158362
X586507Y168362
X586507Y178362
X586507Y188362
X586507Y198362
X586507Y208362
X586507Y218362
X586507Y228362
X586507Y238362
X586507Y248362
X607133Y259200
X607133Y270000
X617133Y264600
X617133Y275400
X607133Y280800
X607133Y291600
X607133Y302400
X607133Y313200
X607133Y324000
X607133Y334800
X617133Y329400
X617133Y318600
X617133Y307800
X617133Y297000
X617133Y286200
X549499Y257969
X549499Y247969
X549499Y224661
X607278Y178213
X617278Y172813
X541707Y299004
X541707Y309004
X541707Y319004
X527676Y320122
X527676Y310122
X527676Y300122
X493204Y317618
X483204Y317618
X473204Y317618
X437452Y321122
X437452Y311122
X437452Y301122
X437452Y331122
X437452Y341122
X437452Y351122
X362574Y353874
X362574Y343874
X346519Y340622
X346519Y330622
X346519Y320622
X346519Y310622
X346519Y300622
X362574Y297906
X362574Y307906
X362574Y317906
X346519Y350622
X362574Y363874
X310965Y415779
X300165Y415779
X289365Y415779
X278565Y415779
X267765Y415779
X256965Y415779
X246165Y415779
X235365Y415779
X240765Y425779
X251565Y425779
X262365Y425779
X273165Y425779
X283965Y425779
X294765Y425779
X305565Y425779
X527676Y350122
X527676Y340122
X527676Y330122
X541707Y344972
X541707Y354972
X541707Y364972
X294251Y121000
X294251Y111000
X294251Y101000
X284251Y101000
X284251Y111000
X284251Y121000
X373160Y42457
X373081Y31787
X194885Y239000
X184885Y239000
X174885Y239000
X164885Y239000
X154885Y239000
X144885Y239000
X124721Y238956
X114721Y238956
X104721Y238956
X94721Y238956
X84721Y238956
X74721Y238956
X64721Y238956
X54721Y238956
T04
X70148Y155098
X70148Y137382
T05
X480877Y232433
X513932Y231933
X513932Y291933
X480877Y292433
T06
X70148Y168681
X70148Y123799
T07
X383515Y419248
X395326Y420429
X596507Y419248
X608318Y420429
T08
X596507Y266886
X318205Y404716
X290995Y266886
X78396Y266886
X78003Y419248
T09
X43751Y453500
X328751Y225173
X388751Y201000
X293751Y141000
X293751Y31000
X428751Y11000
X629814Y11630
X88751Y201000
T10
X88751Y11000
T11
X612278Y74813
X612278Y206013
X612133Y231400
X612133Y362600
X338765Y420779
X207565Y420779
T12
X42351Y238800
M30
