G75*
%MOIN*%
%OFA0B0*%
%FSLAX25Y25*%
%IPPOS*%
%LPD*%
%AMOC8*
5,1,8,0,0,1.08239X$1,22.5*
%
%ADD10R,0.04331X0.05512*%
%ADD11R,0.05512X0.04331*%
%ADD12R,0.07874X0.04724*%
%ADD13R,0.09449X0.10236*%
D10*
X0266034Y0040370D03*
X0273908Y0040370D03*
X0273908Y0058087D03*
X0266034Y0058087D03*
X0266034Y0071866D03*
X0273908Y0071866D03*
X0464235Y0359815D03*
X0472109Y0359815D03*
X0471956Y0369846D03*
X0464081Y0369846D03*
D11*
X0460030Y0348783D03*
X0460030Y0340909D03*
X0395956Y0343520D03*
X0384144Y0343520D03*
X0384144Y0351394D03*
X0395956Y0351394D03*
X0395956Y0304150D03*
X0395956Y0296276D03*
X0384144Y0296276D03*
X0384144Y0304150D03*
X0388081Y0266748D03*
X0388081Y0258874D03*
X0388081Y0249031D03*
X0388081Y0241157D03*
X0370365Y0241157D03*
X0370365Y0249031D03*
X0330995Y0249031D03*
X0330995Y0241157D03*
X0330995Y0258874D03*
X0330995Y0266748D03*
X0427452Y0249031D03*
X0427452Y0241157D03*
X0557373Y0291551D03*
X0557373Y0299425D03*
X0569184Y0299425D03*
X0569184Y0291551D03*
X0569184Y0342732D03*
X0569184Y0350606D03*
X0557373Y0350606D03*
X0557373Y0342732D03*
X0395956Y0083508D03*
X0395956Y0075634D03*
X0380207Y0075803D03*
X0380207Y0083677D03*
X0364459Y0083677D03*
X0364459Y0075803D03*
X0364459Y0063992D03*
X0364459Y0056118D03*
X0380207Y0056118D03*
X0380207Y0063992D03*
X0395956Y0063992D03*
X0395956Y0056118D03*
X0348711Y0056118D03*
X0348711Y0063992D03*
X0332963Y0063992D03*
X0332963Y0056118D03*
X0317215Y0056118D03*
X0317215Y0063992D03*
X0301467Y0063992D03*
X0301467Y0056118D03*
X0301467Y0075803D03*
X0301467Y0083677D03*
X0317215Y0083677D03*
X0317215Y0075803D03*
X0332963Y0075803D03*
X0332963Y0083677D03*
X0348711Y0083677D03*
X0348711Y0075803D03*
D12*
X0080384Y0132461D03*
X0080384Y0142303D03*
X0080384Y0150177D03*
X0080384Y0160020D03*
D13*
X0293200Y0306118D03*
X0313081Y0306118D03*
X0313081Y0331315D03*
X0293200Y0331315D03*
X0293100Y0356417D03*
X0313003Y0356417D03*
X0313003Y0381614D03*
X0293100Y0381614D03*
M02*
