G75*
%MOIN*%
%OFA0B0*%
%FSLAX25Y25*%
%IPPOS*%
%LPD*%
%AMOC8*
5,1,8,0,0,1.08239X$1,22.5*
%
%ADD10C,0.06000*%
%ADD11C,0.08850*%
%ADD12C,0.05200*%
%ADD13C,0.17000*%
%ADD14C,0.13843*%
%ADD15C,0.03600*%
%ADD16C,0.01600*%
%ADD17C,0.01200*%
D10*
X0101912Y0008531D03*
X0101912Y0018531D03*
X0101912Y0028531D03*
X0101912Y0038531D03*
X0101912Y0048531D03*
X0101912Y0058531D03*
X0101912Y0068531D03*
X0101912Y0078531D03*
X0153751Y0011000D03*
X0163751Y0011000D03*
X0173751Y0011000D03*
X0183751Y0011000D03*
X0193751Y0011000D03*
X0203751Y0011000D03*
X0213751Y0011000D03*
X0223751Y0011000D03*
X0243751Y0011000D03*
X0253751Y0011000D03*
X0263751Y0011000D03*
X0273751Y0011000D03*
X0283751Y0011000D03*
X0293751Y0011000D03*
X0303751Y0011000D03*
X0313751Y0011000D03*
X0333751Y0011000D03*
X0343751Y0011000D03*
X0353751Y0011000D03*
X0363751Y0011000D03*
X0373751Y0011000D03*
X0383751Y0011000D03*
X0393751Y0011000D03*
X0403751Y0011000D03*
X0418751Y0031000D03*
X0428751Y0031000D03*
X0428751Y0041000D03*
X0418751Y0041000D03*
X0418751Y0051000D03*
X0428751Y0051000D03*
X0428751Y0061000D03*
X0418751Y0061000D03*
X0418751Y0071000D03*
X0428751Y0071000D03*
X0428751Y0081000D03*
X0418751Y0081000D03*
X0418751Y0091000D03*
X0428751Y0091000D03*
X0428751Y0101000D03*
X0418751Y0101000D03*
X0418751Y0111000D03*
X0428751Y0111000D03*
X0428751Y0121000D03*
X0418751Y0121000D03*
X0418751Y0131000D03*
X0428751Y0131000D03*
X0428751Y0141000D03*
X0418751Y0141000D03*
X0418751Y0151000D03*
X0428751Y0151000D03*
X0428751Y0161000D03*
X0418751Y0161000D03*
X0418751Y0171000D03*
X0428751Y0171000D03*
X0428751Y0181000D03*
X0418751Y0181000D03*
X0418751Y0191000D03*
X0428751Y0191000D03*
X0428751Y0201000D03*
X0418751Y0201000D03*
X0454802Y0205791D03*
X0454802Y0195791D03*
X0454802Y0215791D03*
X0454802Y0225791D03*
X0454802Y0235791D03*
X0454802Y0245791D03*
X0425239Y0262894D03*
X0415239Y0262894D03*
X0405239Y0262894D03*
X0369428Y0262894D03*
X0359428Y0262894D03*
X0349428Y0262894D03*
X0362574Y0297906D03*
X0362574Y0307906D03*
X0362574Y0317906D03*
X0346519Y0320622D03*
X0346519Y0310622D03*
X0346519Y0300622D03*
X0346519Y0330622D03*
X0346519Y0340622D03*
X0346519Y0350622D03*
X0362574Y0353874D03*
X0362574Y0343874D03*
X0362574Y0363874D03*
X0437452Y0351122D03*
X0437452Y0341122D03*
X0437452Y0331122D03*
X0437452Y0321122D03*
X0437452Y0311122D03*
X0437452Y0301122D03*
X0473204Y0317618D03*
X0483204Y0317618D03*
X0493204Y0317618D03*
X0527676Y0320122D03*
X0527676Y0310122D03*
X0527676Y0300122D03*
X0541707Y0299004D03*
X0541707Y0309004D03*
X0541707Y0319004D03*
X0527676Y0330122D03*
X0527676Y0340122D03*
X0527676Y0350122D03*
X0541707Y0354972D03*
X0541707Y0344972D03*
X0541707Y0364972D03*
X0607133Y0334800D03*
X0607133Y0324000D03*
X0607133Y0313200D03*
X0607133Y0302400D03*
X0607133Y0291600D03*
X0607133Y0280800D03*
X0617133Y0275400D03*
X0617133Y0264600D03*
X0607133Y0259200D03*
X0607133Y0270000D03*
X0617133Y0286200D03*
X0617133Y0297000D03*
X0617133Y0307800D03*
X0617133Y0318600D03*
X0617133Y0329400D03*
X0549499Y0257969D03*
X0549499Y0247969D03*
X0549499Y0224661D03*
X0549499Y0214661D03*
X0549499Y0204661D03*
X0549499Y0194661D03*
X0549499Y0179228D03*
X0549499Y0169228D03*
X0549499Y0147732D03*
X0549499Y0137732D03*
X0549499Y0116236D03*
X0549499Y0106236D03*
X0516034Y0108362D03*
X0516034Y0098362D03*
X0516034Y0078835D03*
X0516034Y0068835D03*
X0482570Y0068677D03*
X0482570Y0058677D03*
X0482570Y0078677D03*
X0482570Y0088677D03*
X0482570Y0098677D03*
X0482570Y0108677D03*
X0482570Y0129858D03*
X0482570Y0139858D03*
X0482570Y0161039D03*
X0482570Y0171039D03*
X0482570Y0181039D03*
X0482570Y0191039D03*
X0482570Y0201039D03*
X0482570Y0211039D03*
X0516034Y0211039D03*
X0516034Y0201039D03*
X0516034Y0191039D03*
X0516034Y0181039D03*
X0516034Y0171039D03*
X0516034Y0161039D03*
X0516034Y0139858D03*
X0516034Y0129858D03*
X0456979Y0095055D03*
X0456979Y0085055D03*
X0456979Y0075055D03*
X0456979Y0065055D03*
X0456979Y0055055D03*
X0456979Y0045055D03*
X0456979Y0035055D03*
X0456979Y0025055D03*
X0373081Y0031787D03*
X0373160Y0042457D03*
X0294251Y0101000D03*
X0294251Y0111000D03*
X0294251Y0121000D03*
X0284251Y0121000D03*
X0284251Y0111000D03*
X0284251Y0101000D03*
X0283751Y0201000D03*
X0273751Y0201000D03*
X0263751Y0201000D03*
X0253751Y0201000D03*
X0243751Y0201000D03*
X0233751Y0201000D03*
X0223751Y0201000D03*
X0213751Y0201000D03*
X0192751Y0201000D03*
X0182751Y0201000D03*
X0172751Y0201000D03*
X0162751Y0201000D03*
X0152751Y0201000D03*
X0142751Y0201000D03*
X0132751Y0201000D03*
X0122751Y0201000D03*
X0112751Y0201000D03*
X0102751Y0201000D03*
X0104721Y0238956D03*
X0114721Y0238956D03*
X0124721Y0238956D03*
X0144885Y0239000D03*
X0154885Y0239000D03*
X0164885Y0239000D03*
X0174885Y0239000D03*
X0184885Y0239000D03*
X0194885Y0239000D03*
X0094721Y0238956D03*
X0084721Y0238956D03*
X0074721Y0238956D03*
X0064721Y0238956D03*
X0054721Y0238956D03*
X0235365Y0415779D03*
X0246165Y0415779D03*
X0256965Y0415779D03*
X0267765Y0415779D03*
X0278565Y0415779D03*
X0289365Y0415779D03*
X0300165Y0415779D03*
X0310965Y0415779D03*
X0305565Y0425779D03*
X0294765Y0425779D03*
X0283965Y0425779D03*
X0273165Y0425779D03*
X0262365Y0425779D03*
X0251565Y0425779D03*
X0240765Y0425779D03*
X0303751Y0201000D03*
X0313751Y0201000D03*
X0323751Y0201000D03*
X0333751Y0201000D03*
X0343751Y0201000D03*
X0353751Y0201000D03*
X0363751Y0201000D03*
X0373751Y0201000D03*
X0586507Y0198362D03*
X0586507Y0188362D03*
X0586507Y0178362D03*
X0586507Y0168362D03*
X0586507Y0158362D03*
X0607278Y0156613D03*
X0607278Y0145813D03*
X0607278Y0135013D03*
X0607278Y0124213D03*
X0607278Y0113413D03*
X0617278Y0108013D03*
X0607278Y0102613D03*
X0584932Y0107417D03*
X0584932Y0097417D03*
X0584932Y0087417D03*
X0584932Y0077417D03*
X0584932Y0067417D03*
X0584932Y0057417D03*
X0584932Y0047417D03*
X0584932Y0037417D03*
X0584932Y0027417D03*
X0584932Y0017417D03*
X0584932Y0007299D03*
X0617278Y0118813D03*
X0617278Y0129613D03*
X0617278Y0140413D03*
X0617278Y0151213D03*
X0617278Y0162013D03*
X0607278Y0167413D03*
X0617278Y0172813D03*
X0607278Y0178213D03*
X0586507Y0208362D03*
X0586507Y0218362D03*
X0586507Y0228362D03*
X0586507Y0238362D03*
X0586507Y0248362D03*
D11*
X0513932Y0231933D03*
X0480877Y0232433D03*
X0480877Y0292433D03*
X0513932Y0291933D03*
D12*
X0481117Y0341972D03*
X0476117Y0349472D03*
X0471117Y0341972D03*
X0408900Y0251469D03*
X0403900Y0243969D03*
X0413900Y0243969D03*
X0356314Y0243315D03*
X0351314Y0250815D03*
X0346314Y0243315D03*
D13*
X0338765Y0420779D03*
X0207565Y0420779D03*
X0612133Y0362600D03*
X0612133Y0231400D03*
X0612278Y0206013D03*
X0612278Y0074813D03*
D14*
X0070148Y0123799D03*
X0070148Y0168681D03*
D15*
X0080501Y0121450D03*
X0160801Y0048850D03*
X0170701Y0038950D03*
X0181151Y0018600D03*
X0295011Y0042811D03*
X0307101Y0058200D03*
X0328551Y0051600D03*
X0337351Y0037850D03*
X0320601Y0031079D03*
X0358801Y0046100D03*
X0358801Y0058200D03*
X0389696Y0045882D03*
X0398318Y0031709D03*
X0408554Y0041945D03*
X0441851Y0015850D03*
X0498578Y0010819D03*
X0523932Y0011517D03*
X0513351Y0033937D03*
X0529301Y0035037D03*
X0534251Y0034487D03*
X0550247Y0023598D03*
X0556251Y0052781D03*
X0560101Y0077450D03*
X0560101Y0090100D03*
X0535044Y0079100D03*
X0532601Y0112650D03*
X0556332Y0122000D03*
X0526551Y0135750D03*
X0557351Y0161050D03*
X0571546Y0177378D03*
X0568003Y0184465D03*
X0568003Y0192339D03*
X0634144Y0187220D03*
X0634144Y0198638D03*
X0575501Y0261150D03*
X0583751Y0274900D03*
X0576051Y0282050D03*
X0567215Y0278559D03*
X0559341Y0278559D03*
X0539656Y0284858D03*
X0524302Y0284858D03*
X0540851Y0251800D03*
X0529851Y0243000D03*
X0491351Y0225950D03*
X0466034Y0220685D03*
X0430301Y0211650D03*
X0412151Y0229800D03*
X0407751Y0235850D03*
X0418396Y0250213D03*
X0440444Y0250213D03*
X0420937Y0285328D03*
X0408554Y0281709D03*
X0409638Y0309083D03*
X0400601Y0316700D03*
X0424801Y0331550D03*
X0446251Y0350250D03*
X0446349Y0359661D03*
X0435251Y0370050D03*
X0446349Y0384858D03*
X0468251Y0350250D03*
X0504223Y0344307D03*
X0504223Y0384071D03*
X0554381Y0333165D03*
X0566428Y0332890D03*
X0567609Y0321079D03*
X0586900Y0338795D03*
X0595956Y0347850D03*
X0581001Y0353550D03*
X0467215Y0303756D03*
X0456585Y0292732D03*
X0383001Y0253450D03*
X0388501Y0225950D03*
X0375089Y0281709D03*
X0339551Y0299100D03*
X0328633Y0287220D03*
X0328751Y0311276D03*
X0328633Y0336039D03*
X0316822Y0345488D03*
X0285101Y0356850D03*
X0361551Y0384900D03*
X0370901Y0381050D03*
X0205351Y0218250D03*
X0111301Y0312850D03*
X0103601Y0381050D03*
X0347570Y0137457D03*
X0351428Y0121000D03*
X0298851Y0107150D03*
X0309139Y0080200D03*
X0407751Y0114850D03*
X0412151Y0119250D03*
X0436988Y0125850D03*
X0437097Y0106118D03*
X0454617Y0106118D03*
X0463851Y0144000D03*
X0449001Y0147300D03*
X0479251Y0151700D03*
X0473751Y0168750D03*
X0503042Y0045488D03*
D16*
X0542501Y0095050D02*
X0560101Y0077450D01*
X0542501Y0095050D02*
X0529301Y0095050D01*
X0516101Y0108250D01*
X0516034Y0108362D01*
X0483101Y0130250D02*
X0482570Y0129858D01*
X0483101Y0130250D02*
X0446251Y0167100D01*
X0446251Y0196250D01*
X0436351Y0206150D01*
X0430301Y0206150D01*
X0426451Y0210000D01*
X0426451Y0213300D01*
X0427001Y0213850D01*
X0427001Y0215500D01*
X0412701Y0229800D01*
X0412151Y0229800D01*
X0414351Y0233100D02*
X0449551Y0197900D01*
X0449551Y0186900D01*
X0491351Y0145100D01*
X0541951Y0145100D01*
X0549101Y0137950D01*
X0549499Y0137732D01*
X0581001Y0150600D02*
X0606851Y0124750D01*
X0607278Y0124213D01*
X0581001Y0150600D02*
X0581001Y0212200D01*
X0550751Y0242450D01*
X0547451Y0242450D01*
X0540851Y0249050D01*
X0540851Y0251800D01*
X0521601Y0227050D02*
X0518301Y0227050D01*
X0516651Y0225400D01*
X0508951Y0225400D01*
X0499601Y0234750D01*
X0488051Y0234750D01*
X0466601Y0256200D01*
X0385751Y0256200D01*
X0383001Y0253450D01*
X0413900Y0243969D02*
X0414351Y0243550D01*
X0414351Y0233100D01*
X0418396Y0250213D02*
X0440444Y0250213D01*
X0466034Y0251394D01*
X0466034Y0220685D01*
X0440444Y0249819D02*
X0440444Y0250213D01*
X0408554Y0281709D02*
X0375089Y0281709D01*
X0328633Y0287220D02*
X0328751Y0309346D01*
X0328751Y0311276D01*
X0328239Y0336433D02*
X0319184Y0345488D01*
X0316822Y0345488D01*
X0446349Y0359661D02*
X0446743Y0359268D01*
X0446349Y0359661D02*
X0446349Y0384858D01*
X0504223Y0384071D02*
X0504223Y0344307D01*
X0554381Y0333165D02*
X0554617Y0332890D01*
X0566428Y0332890D01*
X0566034Y0333283D01*
X0567609Y0321079D02*
X0569184Y0321079D01*
X0586900Y0338795D01*
X0595956Y0347850D01*
X0539656Y0284858D02*
X0524302Y0284858D01*
X0467215Y0303756D02*
X0456585Y0293126D01*
X0456585Y0292732D01*
X0521601Y0227050D02*
X0540851Y0207800D01*
X0540851Y0206150D01*
X0549101Y0197900D01*
X0549101Y0195150D01*
X0549499Y0194661D01*
X0454617Y0106118D02*
X0437097Y0106118D01*
X0389696Y0045882D02*
X0398357Y0038795D01*
X0394696Y0038795D01*
X0394814Y0031984D01*
X0398318Y0031866D01*
X0398318Y0038795D01*
X0408554Y0041945D01*
X0398318Y0031866D02*
X0398318Y0031709D01*
X0407751Y0005950D02*
X0424251Y0022450D01*
X0435251Y0022450D01*
X0441851Y0015850D01*
X0407751Y0005950D02*
X0232851Y0005950D01*
X0227901Y0010900D01*
X0224051Y0010900D01*
X0223751Y0011000D01*
X0295011Y0042811D02*
X0309578Y0042890D01*
X0309656Y0031472D01*
X0295011Y0042811D01*
X0309578Y0042890D02*
X0320601Y0031079D01*
X0351428Y0121000D02*
X0351467Y0132417D01*
X0351546Y0137732D01*
X0347570Y0137457D01*
D17*
X0407751Y0114850D02*
X0416551Y0106050D01*
X0420401Y0106050D01*
X0423701Y0102750D01*
X0423701Y0099450D01*
X0427551Y0095600D01*
X0430851Y0095600D01*
X0452301Y0074150D01*
X0452301Y0069750D01*
X0456701Y0065350D01*
X0456979Y0065055D01*
X0461651Y0124750D02*
X0430301Y0156100D01*
X0423151Y0156100D01*
X0418751Y0160500D01*
X0418751Y0161000D01*
X0461651Y0124750D02*
X0506751Y0124750D01*
X0533701Y0097800D01*
X0584851Y0097800D01*
X0584932Y0097417D01*
X0589801Y0095600D02*
X0585401Y0091200D01*
X0585401Y0087900D01*
X0584932Y0087417D01*
X0589801Y0095600D02*
X0589801Y0101100D01*
X0588701Y0102200D01*
X0588701Y0104400D01*
X0589801Y0105500D01*
X0589801Y0114300D01*
X0528201Y0175900D01*
X0504551Y0175900D01*
X0484201Y0196250D01*
X0474301Y0196250D01*
X0455051Y0215500D01*
X0454802Y0215791D01*
X0437452Y0321122D02*
X0437451Y0321650D01*
X0365401Y0321650D01*
X0364301Y0322750D01*
X0348351Y0322750D01*
X0346701Y0321100D01*
X0346519Y0320622D01*
X0308751Y0346400D02*
X0308751Y0082950D01*
X0309139Y0080200D01*
X0307101Y0058200D02*
X0279051Y0086250D01*
X0279051Y0371700D01*
X0246601Y0404150D01*
X0246601Y0408550D01*
X0239451Y0415700D01*
X0235601Y0415700D01*
X0235365Y0415779D01*
X0248801Y0410750D02*
X0248801Y0406350D01*
X0308751Y0346400D01*
X0248801Y0410750D02*
X0253751Y0415700D01*
X0256501Y0415700D01*
X0256965Y0415779D01*
M02*
