G75*
%MOIN*%
%OFA0B0*%
%FSLAX25Y25*%
%IPPOS*%
%LPD*%
%AMOC8*
5,1,8,0,0,1.08239X$1,22.5*
%
%ADD10C,0.13400*%
%ADD11C,0.13792*%
%ADD12C,0.14580*%
%ADD13C,0.12611*%
%ADD14C,0.12020*%
%ADD15OC8,0.07800*%
%ADD16OC8,0.06800*%
%ADD17C,0.07800*%
%ADD18R,0.10800X0.20800*%
%ADD19R,0.20800X0.10800*%
%ADD20C,0.09650*%
%ADD21R,0.10800X0.05800*%
%ADD22R,0.05800X0.10800*%
%ADD23C,0.06800*%
%ADD24OC8,0.06000*%
%ADD25C,0.20800*%
%ADD26C,0.14643*%
%ADD27C,0.05131*%
%ADD28OC8,0.08400*%
%ADD29C,0.04400*%
D10*
X0088751Y0201000D03*
X0293751Y0141000D03*
X0388751Y0201000D03*
X0328751Y0225173D03*
X0293751Y0031000D03*
X0428751Y0011000D03*
X0629814Y0011630D03*
X0043751Y0453500D03*
D11*
X0088751Y0011000D03*
D12*
X0042351Y0238800D03*
D13*
X0078396Y0266886D03*
X0078003Y0419248D03*
X0290995Y0266886D03*
X0318205Y0404716D03*
X0596507Y0266886D03*
D14*
X0596507Y0419248D03*
X0608318Y0420429D03*
X0395326Y0420429D03*
X0383515Y0419248D03*
D15*
X0346519Y0350622D03*
X0346519Y0340622D03*
X0346519Y0330622D03*
X0346519Y0320622D03*
X0346519Y0310622D03*
X0346519Y0300622D03*
X0437452Y0301122D03*
X0437452Y0311122D03*
X0437452Y0321122D03*
X0437452Y0331122D03*
X0437452Y0341122D03*
X0437452Y0351122D03*
X0527676Y0350122D03*
X0527676Y0340122D03*
X0527676Y0330122D03*
X0527676Y0320122D03*
X0527676Y0310122D03*
X0527676Y0300122D03*
X0454802Y0245791D03*
X0454802Y0235791D03*
X0454802Y0225791D03*
X0454802Y0215791D03*
X0454802Y0205791D03*
X0454802Y0195791D03*
X0373751Y0201000D03*
X0363751Y0201000D03*
X0353751Y0201000D03*
X0343751Y0201000D03*
X0333751Y0201000D03*
X0323751Y0201000D03*
X0313751Y0201000D03*
X0303751Y0201000D03*
X0283751Y0201000D03*
X0273751Y0201000D03*
X0263751Y0201000D03*
X0253751Y0201000D03*
X0243751Y0201000D03*
X0233751Y0201000D03*
X0223751Y0201000D03*
X0213751Y0201000D03*
X0192751Y0201000D03*
X0182751Y0201000D03*
X0172751Y0201000D03*
X0162751Y0201000D03*
X0152751Y0201000D03*
X0142751Y0201000D03*
X0132751Y0201000D03*
X0122751Y0201000D03*
X0112751Y0201000D03*
X0102751Y0201000D03*
X0104721Y0238956D03*
X0114721Y0238956D03*
X0124721Y0238956D03*
X0144885Y0239000D03*
X0154885Y0239000D03*
X0164885Y0239000D03*
X0174885Y0239000D03*
X0184885Y0239000D03*
X0194885Y0239000D03*
X0094721Y0238956D03*
X0084721Y0238956D03*
X0074721Y0238956D03*
X0064721Y0238956D03*
X0054721Y0238956D03*
X0101912Y0078531D03*
X0101912Y0068531D03*
X0101912Y0058531D03*
X0101912Y0048531D03*
X0101912Y0038531D03*
X0101912Y0028531D03*
X0101912Y0018531D03*
X0101912Y0008531D03*
X0153751Y0011000D03*
X0163751Y0011000D03*
X0173751Y0011000D03*
X0183751Y0011000D03*
X0193751Y0011000D03*
X0203751Y0011000D03*
X0213751Y0011000D03*
X0223751Y0011000D03*
X0243751Y0011000D03*
X0253751Y0011000D03*
X0263751Y0011000D03*
X0273751Y0011000D03*
X0283751Y0011000D03*
X0293751Y0011000D03*
X0303751Y0011000D03*
X0313751Y0011000D03*
X0333751Y0011000D03*
X0343751Y0011000D03*
X0353751Y0011000D03*
X0363751Y0011000D03*
X0373751Y0011000D03*
X0383751Y0011000D03*
X0393751Y0011000D03*
X0403751Y0011000D03*
X0456979Y0025055D03*
X0456979Y0035055D03*
X0456979Y0045055D03*
X0456979Y0055055D03*
X0456979Y0065055D03*
X0456979Y0075055D03*
X0456979Y0085055D03*
X0456979Y0095055D03*
X0584932Y0097417D03*
X0584932Y0087417D03*
X0584932Y0077417D03*
X0584932Y0067417D03*
X0584932Y0057417D03*
X0584932Y0047417D03*
X0584932Y0037417D03*
X0584932Y0027417D03*
X0584932Y0017417D03*
X0584932Y0107417D03*
D16*
X0607278Y0102613D03*
X0617278Y0108013D03*
X0607278Y0113413D03*
X0607278Y0124213D03*
X0607278Y0135013D03*
X0607278Y0145813D03*
X0607278Y0156613D03*
X0607278Y0167413D03*
X0617278Y0162013D03*
X0617278Y0151213D03*
X0617278Y0140413D03*
X0617278Y0129613D03*
X0617278Y0118813D03*
X0617278Y0172813D03*
X0607278Y0178213D03*
X0607133Y0259200D03*
X0607133Y0270000D03*
X0617133Y0264600D03*
X0617133Y0275400D03*
X0607133Y0280800D03*
X0607133Y0291600D03*
X0607133Y0302400D03*
X0607133Y0313200D03*
X0607133Y0324000D03*
X0607133Y0334800D03*
X0617133Y0329400D03*
X0617133Y0318600D03*
X0617133Y0307800D03*
X0617133Y0297000D03*
X0617133Y0286200D03*
X0310965Y0415779D03*
X0300165Y0415779D03*
X0289365Y0415779D03*
X0278565Y0415779D03*
X0267765Y0415779D03*
X0256965Y0415779D03*
X0246165Y0415779D03*
X0235365Y0415779D03*
X0240765Y0425779D03*
X0251565Y0425779D03*
X0262365Y0425779D03*
X0273165Y0425779D03*
X0283965Y0425779D03*
X0294765Y0425779D03*
X0305565Y0425779D03*
X0294251Y0121000D03*
X0294251Y0111000D03*
X0294251Y0101000D03*
X0284251Y0101000D03*
X0284251Y0111000D03*
X0284251Y0121000D03*
D17*
X0418751Y0121000D03*
X0428751Y0121000D03*
X0428751Y0111000D03*
X0418751Y0111000D03*
X0418751Y0101000D03*
X0428751Y0101000D03*
X0428751Y0091000D03*
X0418751Y0091000D03*
X0418751Y0081000D03*
X0428751Y0081000D03*
X0428751Y0071000D03*
X0418751Y0071000D03*
X0418751Y0061000D03*
X0428751Y0061000D03*
X0428751Y0051000D03*
X0418751Y0051000D03*
X0418751Y0041000D03*
X0428751Y0041000D03*
X0428751Y0031000D03*
X0418751Y0031000D03*
X0418751Y0131000D03*
X0428751Y0131000D03*
X0428751Y0141000D03*
X0418751Y0141000D03*
X0418751Y0151000D03*
X0428751Y0151000D03*
X0428751Y0161000D03*
X0418751Y0161000D03*
X0418751Y0171000D03*
X0428751Y0171000D03*
X0428751Y0181000D03*
X0418751Y0181000D03*
X0418751Y0191000D03*
X0428751Y0191000D03*
X0428751Y0201000D03*
X0418751Y0201000D03*
D18*
X0233444Y0264929D03*
X0184802Y0265012D03*
X0137692Y0265142D03*
X0138204Y0319736D03*
X0161605Y0337756D03*
X0114475Y0337949D03*
X0114487Y0392512D03*
X0208723Y0392496D03*
X0208853Y0337630D03*
X0232314Y0319646D03*
D19*
X0279499Y0292217D03*
X0255885Y0365339D03*
X0091046Y0292732D03*
X0067526Y0365217D03*
D20*
X0480877Y0296858D02*
X0480877Y0288008D01*
X0513932Y0287508D02*
X0513932Y0296358D01*
X0480877Y0236858D02*
X0480877Y0228008D01*
X0513932Y0227508D02*
X0513932Y0236358D01*
D21*
X0552751Y0039587D03*
X0552751Y0028587D03*
X0552751Y0017587D03*
X0526751Y0017587D03*
X0526751Y0028587D03*
X0500751Y0028587D03*
X0500751Y0017587D03*
D22*
X0509751Y0015087D03*
X0517751Y0015087D03*
X0517751Y0026087D03*
X0509751Y0026087D03*
X0491751Y0026087D03*
X0491751Y0015087D03*
X0535751Y0015087D03*
X0543751Y0015087D03*
X0543751Y0026087D03*
X0535751Y0026087D03*
X0543751Y0037087D03*
X0561751Y0037087D03*
X0561751Y0026087D03*
X0561751Y0015087D03*
D23*
X0519034Y0068835D02*
X0513034Y0068835D01*
X0513034Y0078835D02*
X0519034Y0078835D01*
X0519034Y0098362D02*
X0513034Y0098362D01*
X0513034Y0108362D02*
X0519034Y0108362D01*
X0546499Y0106236D02*
X0552499Y0106236D01*
X0552499Y0116236D02*
X0546499Y0116236D01*
X0546499Y0137732D02*
X0552499Y0137732D01*
X0552499Y0147732D02*
X0546499Y0147732D01*
X0519034Y0139858D02*
X0513034Y0139858D01*
X0513034Y0129858D02*
X0519034Y0129858D01*
X0485570Y0129858D02*
X0479570Y0129858D01*
X0479570Y0139858D02*
X0485570Y0139858D01*
X0485570Y0161039D02*
X0479570Y0161039D01*
X0479570Y0171039D02*
X0485570Y0171039D01*
X0485570Y0181039D02*
X0479570Y0181039D01*
X0479570Y0191039D02*
X0485570Y0191039D01*
X0485570Y0201039D02*
X0479570Y0201039D01*
X0479570Y0211039D02*
X0485570Y0211039D01*
X0513034Y0211039D02*
X0519034Y0211039D01*
X0519034Y0201039D02*
X0513034Y0201039D01*
X0513034Y0191039D02*
X0519034Y0191039D01*
X0519034Y0181039D02*
X0513034Y0181039D01*
X0513034Y0171039D02*
X0519034Y0171039D01*
X0519034Y0161039D02*
X0513034Y0161039D01*
X0546499Y0169228D02*
X0552499Y0169228D01*
X0552499Y0179228D02*
X0546499Y0179228D01*
X0546499Y0194661D02*
X0552499Y0194661D01*
X0552499Y0204661D02*
X0546499Y0204661D01*
X0546499Y0214661D02*
X0552499Y0214661D01*
X0552499Y0224661D02*
X0546499Y0224661D01*
X0546499Y0247969D02*
X0552499Y0247969D01*
X0552499Y0257969D02*
X0546499Y0257969D01*
X0583507Y0248362D02*
X0589507Y0248362D01*
X0589507Y0238362D02*
X0583507Y0238362D01*
X0583507Y0228362D02*
X0589507Y0228362D01*
X0589507Y0218362D02*
X0583507Y0218362D01*
X0583507Y0208362D02*
X0589507Y0208362D01*
X0589507Y0198362D02*
X0583507Y0198362D01*
X0583507Y0188362D02*
X0589507Y0188362D01*
X0589507Y0178362D02*
X0583507Y0178362D01*
X0583507Y0168362D02*
X0589507Y0168362D01*
X0589507Y0158362D02*
X0583507Y0158362D01*
X0485570Y0108677D02*
X0479570Y0108677D01*
X0479570Y0098677D02*
X0485570Y0098677D01*
X0485570Y0088677D02*
X0479570Y0088677D01*
X0479570Y0078677D02*
X0485570Y0078677D01*
X0485570Y0068677D02*
X0479570Y0068677D01*
X0479570Y0058677D02*
X0485570Y0058677D01*
X0425239Y0259894D02*
X0425239Y0265894D01*
X0415239Y0265894D02*
X0415239Y0259894D01*
X0405239Y0259894D02*
X0405239Y0265894D01*
X0369428Y0265894D02*
X0369428Y0259894D01*
X0359428Y0259894D02*
X0359428Y0265894D01*
X0349428Y0265894D02*
X0349428Y0259894D01*
X0359574Y0297906D02*
X0365574Y0297906D01*
X0365574Y0307906D02*
X0359574Y0307906D01*
X0359574Y0317906D02*
X0365574Y0317906D01*
X0365574Y0343874D02*
X0359574Y0343874D01*
X0359574Y0353874D02*
X0365574Y0353874D01*
X0365574Y0363874D02*
X0359574Y0363874D01*
X0473204Y0320618D02*
X0473204Y0314618D01*
X0483204Y0314618D02*
X0483204Y0320618D01*
X0493204Y0320618D02*
X0493204Y0314618D01*
X0538707Y0319004D02*
X0544707Y0319004D01*
X0544707Y0309004D02*
X0538707Y0309004D01*
X0538707Y0299004D02*
X0544707Y0299004D01*
X0544707Y0344972D02*
X0538707Y0344972D01*
X0538707Y0354972D02*
X0544707Y0354972D01*
X0544707Y0364972D02*
X0538707Y0364972D01*
D24*
X0481117Y0341972D03*
X0476117Y0349472D03*
X0471117Y0341972D03*
X0408900Y0251469D03*
X0403900Y0243969D03*
X0413900Y0243969D03*
X0356314Y0243315D03*
X0351314Y0250815D03*
X0346314Y0243315D03*
D25*
X0338765Y0420779D03*
X0207565Y0420779D03*
X0612133Y0362600D03*
X0612133Y0231400D03*
X0612278Y0206013D03*
X0612278Y0074813D03*
D26*
X0070148Y0123799D03*
X0070148Y0168681D03*
D27*
X0070148Y0155098D03*
X0070148Y0137382D03*
D28*
X0373160Y0042457D03*
X0373081Y0031787D03*
X0584932Y0007299D03*
D29*
X0550247Y0023598D03*
X0534251Y0034487D03*
X0529301Y0035037D03*
X0513351Y0033937D03*
X0503042Y0045488D03*
X0498578Y0010819D03*
X0523932Y0011517D03*
X0556251Y0052781D03*
X0560101Y0077450D03*
X0560101Y0090100D03*
X0535044Y0079100D03*
X0532601Y0112650D03*
X0556332Y0122000D03*
X0526551Y0135750D03*
X0557351Y0161050D03*
X0571546Y0177378D03*
X0568003Y0184465D03*
X0568003Y0192339D03*
X0634144Y0187220D03*
X0634144Y0198638D03*
X0575501Y0261150D03*
X0583751Y0274900D03*
X0576051Y0282050D03*
X0567215Y0278559D03*
X0559341Y0278559D03*
X0540851Y0251800D03*
X0529851Y0243000D03*
X0491351Y0225950D03*
X0430301Y0211650D03*
X0412151Y0229800D03*
X0407751Y0235850D03*
X0388501Y0225950D03*
X0383001Y0253450D03*
X0420937Y0284935D03*
X0409638Y0309083D03*
X0400601Y0316700D03*
X0424801Y0331550D03*
X0446251Y0350250D03*
X0468251Y0350250D03*
X0435251Y0370050D03*
X0370901Y0381050D03*
X0361551Y0384900D03*
X0285101Y0356850D03*
X0339551Y0299100D03*
X0205351Y0218250D03*
X0111301Y0312850D03*
X0103601Y0381050D03*
X0449001Y0147300D03*
X0463851Y0144000D03*
X0479251Y0151700D03*
X0473751Y0168750D03*
X0436988Y0125850D03*
X0412151Y0119250D03*
X0407751Y0114850D03*
X0358801Y0058200D03*
X0358801Y0046100D03*
X0337351Y0037850D03*
X0328551Y0051600D03*
X0307101Y0058200D03*
X0298851Y0107150D03*
X0181151Y0018600D03*
X0170701Y0038950D03*
X0160801Y0048850D03*
X0080501Y0121450D03*
X0441851Y0015850D03*
X0581001Y0353550D03*
M02*
